<svg width="580" height="218" viewBox="0 0 580 218" fill="none" xmlns="http://www.w3.org/2000/svg">
<path d="M161.209 75L127.5 63.75V15L161.25 25L161.209 75Z" fill="#F68D11"/>
<path d="M170 25L203.75 15L203.633 63.7162L170 75V25Z" fill="#F68D11"/>
<path d="M196.875 9.72125L165.42 0L134.375 9.72125L165.465 18.055L196.875 9.72125Z" fill="#F68D11"/>
<path d="M246.209 75L212.5 63.75V15L246.25 25L246.209 75Z" fill="#F68D11"/>
<path d="M255 25L288.75 15L288.633 63.7162L255 75V25Z" fill="#F68D11"/>
<path d="M281.875 9.72125L250.42 0L219.375 9.72125L250.465 18.055L281.875 9.72125Z" fill="#F68D11"/>
<path d="M33.75 96.25L0 86.25V135L33.709 146.25L33.75 96.25Z" fill="#F68D11"/>
<path d="M42.5 96.25L76.25 86.25L76.1329 134.967L42.5 146.25V96.25Z" fill="#F68D11"/>
<path d="M69.375 80.9713L37.9199 71.25L6.875 80.9713L37.9654 89.305L69.375 80.9713Z" fill="#F68D11"/>
<path d="M118.709 146.25L85 135V86.25L118.75 96.25L118.709 146.25Z" fill="#F68D11"/>
<path d="M127.5 96.25L161.25 86.25L161.133 134.967L127.5 146.25V96.25Z" fill="#F68D11"/>
<path d="M154.375 80.9713L122.92 71.25L91.875 80.9713L122.965 89.305L154.375 80.9713Z" fill="#F68D11"/>
<path d="M76.209 217.5L42.5 206.25V157.5L76.25 167.5L76.209 217.5Z" fill="#F68D11"/>
<path d="M85 167.5L118.75 157.5L118.633 206.217L85 217.5V167.5Z" fill="#F68D11"/>
<path d="M111.875 152.221L80.4199 142.5L49.375 152.221L80.4654 160.555L111.875 152.221Z" fill="#F68D11"/>
<path d="M225.487 174.406L223.007 174.415C222.097 174.415 220.937 175.03 220.652 176.026L213.129 202.533L205.687 176.084C205.464 175.255 204.682 174.415 203.62 174.415H200.684C199.626 174.415 198.855 175.266 198.641 176.101L191.719 202.275L184.566 176.02C184.284 175.06 183.095 174.415 182.162 174.415L178.594 174.409C177.831 174.409 177.122 174.736 176.742 175.264C176.485 175.621 176.414 176.026 176.532 176.379L187.582 215.499C187.826 216.321 188.539 217.15 189.581 217.15H193.13C194.089 217.15 194.929 216.451 195.171 215.46L201.972 189.401L209.374 215.49C209.596 216.289 210.312 217.15 211.36 217.15H214.851C215.822 217.15 216.64 216.475 216.88 215.486L227.516 176.395C227.641 176.019 227.569 175.6 227.315 175.248C226.941 174.729 226.241 174.406 225.487 174.406" fill="white"/>
<path d="M256.173 191.015H237.425C237.856 185.754 241.273 180.299 247.06 180.089C253.219 180.29 256.036 185.62 256.173 191.015ZM247.046 174.126C234.383 174.126 228.615 185.322 228.615 195.724C228.615 208.705 235.785 217.092 246.881 217.092C254.823 217.092 260.876 213.08 263.491 206.07C263.631 205.669 263.588 205.234 263.369 204.844C263.103 204.37 262.598 204.013 262 203.881L258.485 203.209C257.541 203.061 256.46 203.62 256.103 204.431C254.395 208.326 251.283 210.536 247.376 210.651C243.618 210.535 240.166 208.302 238.585 204.966C237.3 202.241 237.11 199.555 237.089 196.824L262.54 196.815C263.074 196.815 263.626 196.58 264.016 196.185C264.343 195.857 264.52 195.45 264.516 195.042C264.454 184.93 259.833 174.126 247.046 174.126" fill="white"/>
<path d="M295.828 195.786C295.828 198.181 295.394 210.14 286.898 210.446C284.05 210.337 281.173 208.664 279.565 206.189C278.381 204.317 277.69 201.73 277.513 198.529V191.493C277.651 186.102 281.445 180.187 286.87 179.958C295.395 180.295 295.828 193.201 295.828 195.786ZM288.23 173.764H287.556C283.353 173.764 280.049 175.51 277.513 179.089L277.509 162.598C277.509 161.671 276.553 160.828 275.496 160.828H271.836C270.88 160.828 269.81 161.585 269.808 162.598V214.078C269.811 215.013 270.768 215.862 271.823 215.862L272.898 215.856C273.913 215.856 274.635 215.039 274.879 214.279L276.024 210.645C278.684 214.422 282.69 216.641 286.978 216.641H287.634C298.928 216.641 303.983 205.656 303.983 194.77C303.983 189.351 302.646 184.17 300.318 180.555C297.626 176.366 292.994 173.764 288.23 173.764" fill="white"/>
<path d="M344.059 194.628C341.679 192.918 338.817 192.346 335.951 191.774L330.455 190.755C326.511 190.107 324.229 189.049 324.229 185.569C324.229 181.89 328.041 180.484 331.274 180.396C335.221 180.496 338.19 182.257 339.631 185.355C339.974 186.085 340.732 186.576 341.521 186.576C341.656 186.576 341.794 186.561 341.924 186.533L345.354 185.775C345.914 185.651 346.436 185.268 346.716 184.769C346.94 184.373 346.989 183.94 346.855 183.554C344.756 177.44 339.427 174.209 331.366 174.209C324.082 174.225 316.299 177.464 316.299 186.51C316.299 192.692 320.184 196.619 327.854 198.181L334.006 199.354C337.384 200 340.837 201.15 340.837 204.776C340.837 210.145 334.59 210.692 332.701 210.731C328.464 210.64 323.666 208.75 322.501 204.747C322.267 203.868 321.16 203.245 320.189 203.447L316.601 204.188C316.061 204.301 315.567 204.652 315.28 205.126C315.039 205.521 314.97 205.964 315.081 206.368C316.932 213.009 323.344 217.014 332.231 217.081L332.429 217.083C340.366 217.083 348.847 213.684 348.847 204.149C348.847 200.268 347.101 196.797 344.059 194.628Z" fill="white"/>
<path d="M380.344 191.054H361.591C362.02 185.788 365.436 180.33 371.224 180.13C377.38 180.325 380.201 185.655 380.344 191.054ZM371.214 174.163C358.548 174.163 352.779 185.359 352.779 195.76C352.779 208.74 359.95 217.126 371.048 217.126C378.99 217.126 385.044 213.114 387.661 206.105C387.8 205.704 387.756 205.268 387.536 204.877C387.27 204.402 386.764 204.045 386.168 203.916L382.648 203.244C381.824 203.11 380.675 203.536 380.27 204.467C378.561 208.36 375.448 210.57 371.545 210.69C367.783 210.57 364.333 208.337 362.758 205.002C361.47 202.284 361.279 199.595 361.26 196.857L386.709 196.851C387.239 196.851 387.788 196.618 388.178 196.225C388.505 195.896 388.683 195.489 388.679 195.079C388.62 184.967 384.003 174.163 371.214 174.163" fill="white"/>
<path d="M412.711 174.639C412.215 174.584 411.738 174.558 411.274 174.558C407.003 174.558 403.534 176.88 401.126 181.316L401.135 177.431C401.131 176.49 400.193 175.664 399.126 175.664H395.948C394.905 175.664 393.985 176.494 393.978 177.446L393.973 215.187C393.973 216.135 394.893 216.966 395.943 216.966L399.651 216.965C400.616 216.965 401.703 216.208 401.711 215.187L401.714 196.16C401.714 193.023 402.006 190.659 403.505 187.862C405.646 183.879 408.636 181.925 412.646 181.894C413.651 181.886 414.534 181.009 414.534 180.015V176.485C414.534 175.561 413.733 174.75 412.711 174.639" fill="white"/>
<path d="M451.65 173.897L448.721 173.899C447.804 173.899 446.627 174.558 446.342 175.524L436.849 205.362L427.154 175.554C426.867 174.564 425.689 173.899 424.766 173.899L420.584 173.895C419.816 173.895 419.074 174.237 418.694 174.766C418.439 175.12 418.369 175.521 418.495 175.896L431.764 215.257C432.019 216.036 432.695 216.946 433.765 216.946H438.826C439.755 216.946 440.516 216.314 440.865 215.254L453.735 175.909C453.864 175.535 453.795 175.132 453.541 174.777C453.159 174.244 452.417 173.897 451.65 173.897Z" fill="white"/>
<path d="M461.273 158.768C458.575 158.768 456.381 160.967 456.381 163.674C456.381 166.38 458.575 168.579 461.273 168.579C463.971 168.579 466.168 166.38 466.168 163.674C466.168 160.967 463.971 158.768 461.273 158.768Z" fill="white"/>
<path d="M463.286 173.658L459.27 173.654C458.178 173.654 457.183 174.538 457.183 175.506L457.163 215.58C457.163 216.065 457.413 216.546 457.845 216.904C458.241 217.229 458.748 217.416 459.256 217.416L463.301 217.422H463.304C464.413 217.413 465.386 216.553 465.386 215.583V175.506C465.386 174.521 464.404 173.658 463.286 173.658Z" fill="white"/>
<path d="M500.82 200.833L497.466 200.845C496.53 200.845 495.745 201.408 495.396 202.385C494.171 207.67 491.396 210.409 487.189 210.53C478.994 210.286 478.358 198.864 478.358 195.369C478.358 188.399 480.771 180.877 487.51 180.679C491.578 180.804 494.536 183.72 495.424 188.473C495.591 189.442 496.336 190.176 497.354 190.304L500.943 190.339C502.015 190.223 502.856 189.411 502.849 188.405C501.579 179.816 495.628 174.265 487.674 174.265L487.399 174.272L487.088 174.265C475.52 174.265 470.341 185.061 470.341 195.76C470.341 205.569 474.708 217.022 487.023 217.022H487.613C495.368 217.022 501.221 211.586 502.898 202.773C502.935 202.353 502.79 201.933 502.493 201.591C502.108 201.149 501.494 200.865 500.82 200.833" fill="white"/>
<path d="M533.942 191.054H515.187C515.616 185.786 519.034 180.33 524.825 180.13C530.982 180.325 533.802 185.655 533.942 191.054ZM524.812 174.163C512.147 174.163 506.38 185.359 506.38 195.76C506.38 208.74 513.551 217.126 524.649 217.126C532.587 217.126 538.639 213.116 541.259 206.106C541.395 205.703 541.35 205.265 541.131 204.877C540.861 204.399 540.37 204.05 539.764 203.916L536.249 203.244C535.421 203.11 534.276 203.536 533.871 204.467C532.157 208.36 529.042 210.57 525.141 210.691C521.38 210.57 517.931 208.337 516.356 205.002C515.067 202.28 514.876 199.591 514.856 196.857L540.307 196.854C540.842 196.854 541.395 196.618 541.786 196.221C542.111 195.89 542.286 195.482 542.28 195.079C542.221 184.967 537.602 174.163 524.812 174.163" fill="white"/>
<path d="M574.164 194.628C571.78 192.916 568.915 192.345 566.054 191.774L560.558 190.755C556.618 190.107 554.336 189.049 554.336 185.569C554.336 180.824 560.225 180.427 561.374 180.396C565.325 180.496 568.294 182.257 569.733 185.356C570.078 186.086 570.839 186.576 571.629 186.576C571.765 186.576 571.901 186.561 572.034 186.533L575.461 185.775C576.021 185.651 576.543 185.266 576.823 184.768C577.045 184.371 577.094 183.94 576.96 183.554C574.864 177.44 569.534 174.209 561.469 174.209C554.188 174.225 546.406 177.464 546.406 186.51C546.406 192.694 550.29 196.62 557.959 198.181L564.114 199.354C567.492 200 570.945 201.15 570.945 204.776C570.945 210.145 564.698 210.692 562.809 210.731C558.88 210.647 553.851 209.025 552.61 204.752C552.383 203.868 551.276 203.246 550.288 203.447L546.706 204.188C546.164 204.303 545.669 204.656 545.381 205.131C545.143 205.527 545.074 205.966 545.187 206.368C547.033 213.009 553.443 217.014 562.331 217.081L562.529 217.083C570.468 217.083 578.95 213.684 578.95 204.149C578.95 200.265 577.205 196.794 574.164 194.628" fill="white"/>
<path fill-rule="evenodd" clip-rule="evenodd" d="M410.894 96.5025V87.4025C410.899 86.0225 411.946 85.0963 413.204 85.0975L453.973 85.0963C455.274 85.0963 456.324 86.045 456.324 87.3925V95.1963C456.311 96.5025 455.208 98.2105 453.253 100.923L432.136 131.074C439.971 130.888 448.266 132.061 455.386 136.064C456.995 136.966 457.423 138.305 457.554 139.612V149.322C457.554 150.661 456.089 152.208 454.551 151.402C442.003 144.828 425.349 144.11 411.47 151.479C410.054 152.235 408.569 150.711 408.569 149.372V140.146C408.569 138.674 408.599 136.145 410.085 133.893L434.554 98.7949L413.253 98.79C411.949 98.79 410.906 97.8623 410.894 96.5025" fill="white"/>
<path fill-rule="evenodd" clip-rule="evenodd" d="M262.181 153.317H249.775C248.596 153.24 247.652 152.351 247.559 151.217L247.567 87.5575C247.567 86.2838 248.64 85.2663 249.96 85.2663L261.511 85.26C262.721 85.3275 263.689 86.24 263.771 87.3975V95.7154H264.001C267.009 87.6738 272.682 83.9288 280.322 83.9288C288.079 83.9288 292.942 87.6738 296.416 95.7154C299.429 87.6738 306.257 83.9288 313.557 83.9288C318.767 83.9288 324.434 86.0688 327.907 90.8888C331.844 96.25 331.032 104.015 331.032 110.85L331.025 151.024C331.025 152.294 329.954 153.317 328.635 153.317H316.247C315 153.24 314.019 152.245 314.019 151.03V117.279C314.019 114.601 314.247 107.9 313.67 105.357C312.741 101.067 309.961 99.8681 306.377 99.8681C303.364 99.8681 300.236 101.878 298.962 105.086C297.69 108.306 297.807 113.664 297.807 117.279V151.024C297.807 152.294 296.736 153.317 295.415 153.317H283.025C281.784 153.24 280.8 152.245 280.8 151.03L280.784 117.279C280.784 110.178 281.945 99.7339 273.147 99.7339C264.232 99.7339 264.58 109.912 264.58 117.279L264.572 151.024C264.577 152.294 263.505 153.317 262.181 153.317" fill="white"/>
<path fill-rule="evenodd" clip-rule="evenodd" d="M491.536 96.918C482.385 96.918 481.809 109.375 481.809 117.148C481.809 124.916 481.694 141.525 491.424 141.525C501.035 141.525 501.496 128.129 501.496 119.959C501.496 114.601 501.267 108.173 499.646 103.082C498.252 98.6596 495.476 96.918 491.536 96.918V96.918ZM491.424 83.9288C509.831 83.9288 519.79 99.7339 519.79 119.82C519.79 139.249 508.786 154.655 491.424 154.655C473.36 154.655 463.516 138.845 463.516 119.154C463.516 99.3286 473.471 83.9288 491.424 83.9288" fill="white"/>
<path fill-rule="evenodd" clip-rule="evenodd" d="M543.665 153.317H531.306C530.061 153.24 529.08 152.245 529.08 151.03L529.062 87.3413C529.165 86.1813 530.195 85.2663 531.44 85.2663L542.949 85.26C544.034 85.32 544.924 86.0575 545.151 87.0438V96.7846H545.386C548.855 88.0763 553.721 83.9288 562.285 83.9288C567.844 83.9288 573.289 85.9325 576.76 91.4263C580 96.5146 580 105.086 580 111.249V151.31C579.861 152.439 578.855 153.317 577.63 153.317H565.19C564.043 153.243 563.12 152.395 562.981 151.31V116.743C562.981 109.778 563.794 99.5948 555.222 99.5948C552.214 99.5948 549.439 101.609 548.047 104.686C546.309 108.569 546.079 112.454 546.079 116.743V151.024C546.057 152.294 544.985 153.317 543.665 153.317" fill="white"/>
<path fill-rule="evenodd" clip-rule="evenodd" d="M390.899 153.156C390.076 153.89 388.899 153.939 387.971 153.445C383.852 150.021 383.112 148.434 380.861 145.177C374.052 152.112 369.231 154.192 360.415 154.192C349.969 154.192 341.849 147.748 341.849 134.86C341.849 124.794 347.3 117.947 355.074 114.588C361.804 111.634 371.204 111.096 378.396 110.288V108.679C378.396 105.728 378.627 102.235 376.885 99.686C375.381 97.4038 372.48 96.4663 369.924 96.4663C365.192 96.4663 360.989 98.8916 359.954 103.916C359.744 105.032 358.924 106.14 357.8 106.194L345.781 104.892C344.764 104.663 343.637 103.852 343.931 102.302C346.694 87.715 359.864 83.3075 371.667 83.3075C377.697 83.3075 385.591 84.9175 390.349 89.4813C396.38 95.1221 395.799 102.639 395.799 110.829V130.152C395.799 135.965 398.215 138.516 400.486 141.649C401.272 142.779 401.45 144.118 400.44 144.946C397.907 147.069 393.406 150.975 390.932 153.184L390.899 153.156V153.156ZM378.396 122.911C378.396 127.745 378.511 131.776 376.074 136.069C374.101 139.563 370.966 141.709 367.485 141.709C362.732 141.709 359.949 138.085 359.949 132.712C359.949 122.151 369.426 120.228 378.396 120.228V122.911" fill="white"/>
<path fill-rule="evenodd" clip-rule="evenodd" d="M228.306 153.156C227.486 153.89 226.3 153.939 225.373 153.445C221.254 150.021 220.516 148.434 218.263 145.177C211.458 152.112 206.634 154.192 197.813 154.192C187.37 154.192 179.248 147.748 179.248 134.86C179.248 124.794 184.704 117.947 192.478 114.588C199.209 111.634 208.608 111.096 215.8 110.288V108.679C215.8 105.728 216.034 102.235 214.291 99.686C212.784 97.4038 209.88 96.4663 207.331 96.4663C202.6 96.4663 198.391 98.8916 197.36 103.916C197.145 105.032 196.329 106.14 195.206 106.194L183.183 104.892C182.168 104.663 181.04 103.852 181.331 102.302C184.094 87.715 197.265 83.3075 209.068 83.3075C215.105 83.3075 222.993 84.9175 227.751 89.4813C233.785 95.1221 233.203 102.639 233.203 110.829V130.152C233.203 135.965 235.62 138.516 237.885 141.649C238.675 142.779 238.854 144.118 237.846 144.946C235.311 147.069 230.808 150.975 228.335 153.184L228.306 153.156V153.156ZM215.8 122.911C215.8 127.745 215.914 131.776 213.481 136.069C211.51 139.563 208.373 141.709 204.896 141.709C200.134 141.709 197.351 138.085 197.351 132.712C197.351 122.151 206.826 120.228 215.8 120.228V122.911" fill="white"/>
</svg>
