<svg width="525" height="250" viewBox="0 0 525 250" fill="none" xmlns="http://www.w3.org/2000/svg">
<path d="M0 176.167V102.38H54.9857H109.971V118.982V135.584H73.6211H37.2707V150.572V165.56H68.7897H100.309V181.931V198.303H68.7897H37.2707V224.128V249.954H18.6353H0V176.167Z" fill="white"/>
<path d="M118.254 176.213V102.38H151.061C178.393 102.38 184.743 102.472 189.344 103.118C197.166 104.132 204.667 105.885 209.82 107.914C211.201 108.467 212.857 109.067 213.501 109.297C216.262 110.173 228.317 117.045 229.606 118.521C229.744 118.659 231.17 119.858 232.827 121.241C236.6 124.424 237.704 125.576 242.351 131.064C247.781 137.613 252.658 147.943 255.373 158.873C256.155 162.193 257.214 171.647 257.214 175.936C257.214 184.468 255.281 195.259 252.382 203.33C247.873 215.735 237.842 228.463 226.431 236.119C216.952 242.483 209.084 245.619 194.406 248.847C191.093 249.585 187.044 249.677 154.512 249.862L118.254 250V176.213ZM181.844 216.242C189.482 215.458 197.673 212.461 202.918 208.541C220.909 195.121 224.682 169.757 211.293 152.14C208.854 148.912 207.243 147.113 206.875 147.113C206.737 147.113 206.093 146.606 205.403 145.96C202.136 142.916 196.522 139.873 191.185 138.166C184.881 136.229 183.086 136.045 169.098 136.045H155.525V176.397V216.75H166.338C172.273 216.75 179.267 216.519 181.844 216.242Z" fill="white"/>
<path d="M264.116 176.167V102.38H277.828H291.494L297.935 112.064C301.478 117.414 304.699 122.256 305.067 122.809C305.436 123.409 311.555 132.632 318.595 143.239C345.789 184.191 343.166 180.456 343.995 179.672C344.363 179.303 344.639 178.888 344.639 178.703C344.639 178.334 346.617 175.521 347.077 175.337C347.262 175.244 347.4 175.014 347.4 174.783C347.4 174.46 353.841 164.545 363.182 150.572C365.207 147.528 369.992 140.38 373.765 134.662C377.538 128.943 381.679 122.763 382.876 120.919C384.118 119.074 385.13 117.46 385.13 117.322C385.13 117.137 385.729 116.261 386.465 115.339C387.155 114.416 387.845 113.494 387.937 113.217C388.029 112.987 389.686 110.404 391.572 107.591L395.023 102.38H408.919H422.861V176.167V249.954H404.226H385.59V213.937C385.59 173.261 386.005 176.766 382.093 182.992C381.127 184.606 379.931 186.451 379.517 187.143C379.057 187.834 378.458 188.849 378.182 189.448C377.86 190.002 377.446 190.463 377.216 190.463C377.032 190.463 376.848 190.647 376.848 190.924C376.848 191.155 375.514 193.368 373.857 195.813C372.201 198.257 370.866 200.332 370.866 200.424C370.866 200.47 369.946 201.9 368.796 203.56C367.645 205.267 366.725 206.742 366.725 206.881C366.725 207.111 364.839 209.924 364.378 210.293C364.24 210.432 363.964 210.847 363.78 211.216C363.32 212.23 362.722 213.153 358.029 220.347L353.703 226.895H343.488C334.194 226.895 333.227 226.803 332.537 226.065C332.077 225.604 331.755 224.958 331.755 224.682C331.755 224.359 331.571 224.128 331.387 224.128C331.157 224.128 330.743 223.667 330.421 223.114C329.454 221.223 327.798 218.687 317.721 203.145C317.215 202.407 316.709 201.577 316.571 201.301C316.295 200.701 310.313 191.524 309.163 189.91C308.702 189.218 308.288 188.434 308.288 188.157C308.288 187.927 308.104 187.696 307.92 187.696C307.69 187.696 307.276 187.235 306.954 186.681C306.218 185.298 305.666 184.422 303.227 180.594L301.156 177.412L301.018 213.706L300.926 249.954H282.521H264.116V176.167Z" fill="white"/>
<path d="M439.656 144.254C439.518 143.931 439.38 131.664 439.288 116.999L439.195 90.297L427.232 86.3771C420.652 84.2096 414.532 82.1804 413.658 81.8576C412.784 81.5348 408.965 80.2896 405.146 79.0906C401.373 77.8915 397.508 76.6464 396.633 76.3236C395.759 75.9546 393.412 75.2167 391.434 74.6172C388.121 73.6488 387.845 73.4643 387.983 72.4036C388.121 71.1585 387.707 71.2968 408.597 64.5637C413.52 62.9958 418.306 61.4278 419.18 61.105C420.054 60.7821 422.953 59.8598 425.622 59.0297C428.29 58.1996 430.959 57.3234 431.603 57.0467C432.248 56.8161 433.398 56.4471 434.134 56.2166C434.916 56.0321 436.343 55.5709 437.355 55.202L439.195 54.5102L439.334 27.2551L439.426 0H440.484C441.266 0 442.14 0.876222 443.889 3.36654C445.177 5.1651 447.524 8.4394 449.088 10.6069C450.653 12.7744 452.263 15.0341 452.677 15.5875C453.091 16.1871 454.748 18.4468 456.358 20.5682C457.923 22.6895 459.211 24.6265 459.211 24.9032C459.211 25.1337 459.395 25.3643 459.625 25.3643C459.855 25.3643 460.546 26.1483 461.098 27.1168C462.018 28.5925 468.506 37.5392 469.794 39.0611C470.024 39.3839 470.254 39.845 470.254 40.1217C470.254 40.3523 470.438 40.5829 470.715 40.5829C470.945 40.5829 471.451 41.2286 471.865 41.9664C472.647 43.5344 473.567 43.6728 475.868 42.7043C476.696 42.3354 481.436 40.7674 486.359 39.1533C496.298 35.9712 503.338 33.7115 515.209 29.7916C519.58 28.3619 523.538 27.209 524.09 27.209C526.16 27.209 524.458 30.9445 519.949 36.294C519.719 36.6169 519.488 36.9858 519.488 37.078C519.488 37.2164 519.212 37.7237 518.844 38.1387C518.476 38.5999 516.36 41.4591 514.151 44.5029C511.942 47.5466 508.077 52.8039 505.592 56.1243C503.108 59.4909 501.083 62.3501 501.083 62.4885C501.083 62.6268 500.761 63.088 500.393 63.5492C498.875 65.2555 494.181 71.9886 494.181 72.4036C494.181 72.8187 497.586 77.6609 499.243 79.644C499.473 79.9668 499.703 80.3357 499.703 80.4741C499.703 80.7047 506.145 89.513 507.433 91.081C507.663 91.3577 508.629 92.6951 509.596 94.0786C511.482 96.7534 516.866 104.086 517.648 105.008C517.878 105.331 518.108 105.7 518.108 105.792C518.108 105.931 518.384 106.438 518.752 106.853C519.12 107.314 520.685 109.389 522.203 111.511C525.286 115.707 525.792 117.598 523.86 117.598C523.262 117.598 522.065 117.322 521.237 116.953C520.409 116.584 515.669 115.016 510.746 113.448C499.795 109.943 491.42 107.222 480.975 103.763C473.383 101.273 473.061 101.181 472.371 102.011C471.957 102.472 471.635 102.933 471.635 103.071C471.635 103.21 471.313 103.671 470.991 104.086C470.622 104.547 468.414 107.499 466.113 110.681C463.813 113.863 461.604 116.814 461.236 117.275C460.914 117.69 460.592 118.152 460.592 118.29C460.592 118.428 460.27 118.89 459.947 119.305C459.211 120.227 453.644 127.882 446.788 137.429C444.395 140.795 442.14 143.793 441.818 144.162C441.036 144.946 439.932 144.992 439.656 144.254Z" fill="white"/>
</svg>
