<svg width="351" height="68" viewBox="0 0 351 68" fill="none" xmlns="http://www.w3.org/2000/svg">
<path d="M264.3 26.9C270 24.7 275.6 26.5 279.3 30.7L255.9 39.9C255.6 34.2 258.5 29.1 264.3 26.9ZM179.6 39.8C179.3 34.2 182.2 29.1 188 26.9C193.7 24.7 199.3 26.5 203 30.6L179.6 39.8ZM77.5 39.7C77.3 34.2 80.2 29.1 85.9 26.9C91.5 24.8 97.1 26.5 100.8 30.5L77.5 39.7ZM337.1 43.5C336.4 48 333.7 51.9 328.9 53.7C321.3 56.6 313.9 52.3 310.8 44.8C309.8 42.2 309.4 39.5 309.6 37L281.7 48C280.3 50.5 278 52.5 274.9 53.7C268.9 56 263 53.9 259.3 49.2L317.7 26.2C319.6 25.5 321.2 25.3 322.6 25.3C327.8 25.3 332.5 28.5 335.1 33.5L348.2 28.4C343.7 19.2 334.3 12.8 323.4 12.8C310.2 12.8 299.1 22.2 296.5 34.6C293.9 22.2 282.8 12.8 269.6 12.8C260.6 12.8 252.7 17.1 247.6 23.7V14.2H235.6V0L220.2 6.3V34.6C217.9 22.6 206.8 12.8 193.3 12.8C179.3 12.8 167.7 23.3 166 36.8V33.6C166 21.2 158.9 12.5 146.8 12.5C137.6 12.5 134.3 17.1 132.6 20V14.2H118.2V34.4C115.5 22 104.5 12.8 91.3 12.8C77.7 12.8 66.4 22.6 64.2 35.5C64.2 30.9 63.2 26.5 61.4 22.5L31.5 34.3L35.2 43.6L49.6 37.9C49.4 44.5 45.7 50.4 38.7 53.1C28.9 56.8 19.4 51.6 15.6 42C11.8 32.5 15.2 22.3 24.9 18.5C31.4 16 37.7 17.5 42.4 21.6L57.2 15.8C51.3 8.4 42.2 3.7 32.1 3.7C14.4 3.7 0 18.1 0 35.8C0 53.5 14.4 67.9 32.1 67.9C48.1 67.9 61.3 56.2 63.8 40.9C64.1 55.8 76.3 67.9 91.3 67.9C104.5 67.9 115.5 58.6 118.2 46.3V66H133.7C133.7 66 133.7 36.7 133.7 35.9L103.5 47.8C102.1 50.4 99.8 52.5 96.6 53.7C90.5 56 84.6 53.9 80.9 49.1C80.9 49.1 138.2 26.6 138.3 26.5C139.8 25.9 141.2 25.7 142.4 25.7C150.5 25.7 150.5 34.1 150.5 37.7V65.9H166V43.8C167.7 57.3 179.3 67.8 193.3 67.8C206.5 67.8 217.5 58.5 220.2 46.2V65.9H235.6V36L205.5 47.9C204.1 50.4 201.8 52.5 198.7 53.7C192.7 56 186.8 53.9 183.1 49.2L247.5 23.9C244.1 28.5 242 34.2 242 40.4C242 55.6 254.3 67.9 269.5 67.9C282.7 67.9 293.8 58.6 296.4 46.1C299 58.5 310.1 67.9 323.3 67.9C336.7 67.9 347.8 58.4 350.3 45.8L337.1 43.5Z" fill="white"/>
</svg>
