<?xml version="1.0" encoding="utf-8"?>
<!-- Generator: Adobe Illustrator 19.2.1, SVG Export Plug-In . SVG Version: 6.00 Build 0)  -->
<svg version="1.1" id="Layer_1" xmlns="http://www.w3.org/2000/svg" xmlns:xlink="http://www.w3.org/1999/xlink" x="0px" y="0px"
	 viewBox="0 0 1679 264" style="enable-background:new 0 0 1679 264;" xml:space="preserve">
<style type="text/css">
	.st0{fill:#FFFFFF;}
</style>
<g>
	<g>
		<path class="st0" d="M151.9,122.7h-40.4c-1,0-1.9,0.8-1.9,1.9v19.7c0,1,0.8,1.9,1.9,1.9h15.7v24.5c0,0-3.5,1.2-13.3,1.2
			c-11.5,0-27.6-4.2-27.6-39.6c0-35.4,16.8-40.1,32.5-40.1c13.6,0,19.5,2.4,23.2,3.6c1.2,0.4,2.3-0.8,2.3-1.9l4.5-19.1
			c0-0.5-0.2-1.1-0.7-1.5c-1.5-1.1-10.8-6.3-34.2-6.3c-26.9,0-54.6,11.5-54.6,66.6c0,55.1,31.6,63.3,58.3,63.3
			c22.1,0,35.5-9.4,35.5-9.4c0.6-0.3,0.6-1.1,0.6-1.4v-61.5C153.8,123.5,153,122.7,151.9,122.7z"/>
		<path class="st0" d="M359.9,73.7c0-1-0.8-1.9-1.9-1.9h-22.7c-1,0-1.9,0.8-1.9,1.9c0,0,0,43.9,0,43.9H298V73.7c0-1-0.8-1.9-1.9-1.9
			h-22.7c-1,0-1.9,0.8-1.9,1.9v118.9c0,1,0.8,1.9,1.9,1.9h22.7c1,0,1.9-0.9,1.9-1.9v-50.9h35.4c0,0-0.1,50.9-0.1,50.9
			c0,1,0.8,1.9,1.9,1.9H358c1,0,1.9-0.9,1.9-1.9V73.7z"/>
		<g>
			<g>
				<path class="st0" d="M194.8,89.3c0-8.2-6.6-14.8-14.7-14.8c-8.1,0-14.6,6.6-14.6,14.8c0,8.2,6.6,14.8,14.6,14.8
					C188.3,104.1,194.8,97.4,194.8,89.3z"/>
				<path class="st0" d="M193.2,167.5c0-3,0-54.9,0-54.9c0-1-0.8-1.9-1.9-1.9h-22.7c-1,0-2,1.1-2,2.1c0,0,0,66,0,78.6
					c0,2.3,1.4,3,3.3,3c0,0,9.7,0,20.4,0c2.2,0,2.8-1.1,2.8-3C193.2,187.2,193.2,170.7,193.2,167.5z"/>
			</g>
		</g>
		<path class="st0" d="M446.3,110.9h-22.5c-1,0-1.9,0.9-1.9,1.9v58.3c0,0-5.7,4.2-13.9,4.2c-8.1,0-10.3-3.7-10.3-11.7
			c0-8,0-50.8,0-50.8c0-1-0.8-1.9-1.9-1.9h-22.9c-1,0-1.9,0.9-1.9,1.9c0,0,0,31,0,54.7c0,23.6,13.2,29.4,31.3,29.4
			c14.9,0,26.9-8.2,26.9-8.2s0.6,4.3,0.8,4.8c0.3,0.5,0.9,1,1.7,1l14.6-0.1c1,0,1.9-0.9,1.9-1.9l0-79.8
			C448.2,111.7,447.3,110.9,446.3,110.9z"/>
		<path class="st0" d="M507.9,108.2c-12.8,0-21.5,5.7-21.5,5.7V73.7c0-1-0.8-1.9-1.9-1.9h-22.8c-1,0-1.9,0.8-1.9,1.9v118.9
			c0,1,0.8,1.9,1.9,1.9c0,0,15.8,0,15.8,0c0.7,0,1.3-0.4,1.6-1c0.4-0.6,1-5.5,1-5.5s9.3,8.8,27,8.8c20.7,0,32.6-10.5,32.6-47.2
			C539.7,113,520.7,108.2,507.9,108.2z M499,175.2c-7.8-0.2-13.1-3.8-13.1-3.8v-37.7c0,0,5.2-3.2,11.7-3.8
			c8.1-0.7,15.9,1.7,15.9,21.1C513.5,171.5,510,175.5,499,175.2z"/>
		<path class="st0" d="M258.5,110.7h-17c0,0,0-22.5,0-22.5c0-0.9-0.4-1.3-1.4-1.3h-23.2c-0.9,0-1.4,0.4-1.4,1.3v23.3
			c0,0-11.6,2.8-12.4,3c-0.8,0.2-1.4,1-1.4,1.8v14.6c0,1.1,0.8,1.9,1.9,1.9h11.9c0,0,0,15.3,0,35.2c0,26.1,18.3,28.7,30.7,28.7
			c5.7,0,12.4-1.8,13.5-2.2c0.7-0.2,1.1-0.9,1.1-1.7l0-16.1c0-1-0.9-1.9-1.9-1.9c-1,0-3.5,0.4-6.2,0.4c-8.4,0-11.2-3.9-11.2-8.9
			c0-5,0-33.4,0-33.4h17c1,0,1.9-0.8,1.9-1.9v-18.3C260.4,111.5,259.5,110.7,258.5,110.7z"/>
	</g>
	<path class="st0" d="M623.2,66.8c15.5,0,25.9,2.9,32.8,5.9v11.3c-11.6-4.7-20.2-6.6-32.8-6.6c-27.6,0-37.5,23.7-37.5,54.1
		s9.9,54.1,37.5,54.1c12.6,0,21.2-1.8,32.8-6.6v11.3c-6.9,3-17.3,5.9-32.8,5.9c-37.6,0-49.6-28.9-49.6-64.7S585.6,66.8,623.2,66.8z"
		/>
	<path class="st0" d="M703.2,119.2c-11.3,0-18.6,2-25.2,4.2v-10.1c7.4-3.2,17.1-4.5,25.2-4.5c25.2,0,31.8,11.4,31.8,28.2v57.5h-6.6
		l-2.5-6.7c-7.6,5.5-17,8.4-25.4,8.4c-22,0-29.4-12.9-29.4-27c0-14.3,7.9-24.9,29.9-26.2l22.2-1.3v-4.7
		C723.2,124.6,718.8,119.2,703.2,119.2z M700.2,151.9c-11.9,1.2-17.1,7.4-17.1,17.1c0,7.6,1.8,16.6,17.8,16.6
		c9.1,0,15.1-2.5,22.3-6.7v-29.2L700.2,151.9z"/>
	<path class="st0" d="M855.9,133.5c0-10.9-6.4-14.3-16-14.3c-10.4,0-16.1,2-22.8,5.5c0.7,2.7,1,5.5,1,8.7v61h-11.8v-61
		c0-10.9-6.4-14.3-16-14.3c-9.7,0-15.3,1.7-21.8,5v70.2h-11.8v-84h6.6l2.5,6.9c8.1-5.9,16.8-8.6,24.5-8.6c11.3,0,19.2,3.2,23.5,9.6
		c8.7-6,17.6-9.6,26-9.6c18,0,27.7,8.4,27.7,25.2v60.5h-11.8V133.5z"/>
	<path class="st0" d="M900.4,189.2v47.2h-11.8v-126h6.6l2.5,6.9c8.7-5.5,17.1-8.6,26.2-8.6c27,0,34.4,19.5,34.4,43.7
		s-7.4,43.7-34.4,43.7C916.2,196.1,907.7,193.9,900.4,189.2z M946.6,152.5c0-16.6-2.5-33.3-22.7-33.3c-10.9,0-17,1.8-23.5,5.4v55.8
		c6.6,3.5,12.6,5.4,23.5,5.4C944.1,185.7,946.6,169.1,946.6,152.5z"/>
	<path class="st0" d="M989.5,171.4c0,10.9,6.4,14.3,16.8,14.3c10.9,0,16.5-1.8,22.7-5.4v-69.9h11.8v84h-6.6l-2.5-7.1
		c-7.9,5.9-16.5,8.7-25.4,8.7c-20,0-28.6-9.1-28.6-25.2v-60.5h11.8V171.4z"/>
	<path class="st0" d="M1090.6,146.2c23.9,2.2,29.6,10.2,29.6,24c0,12.9-8.2,25.9-33.8,25.9c-8.1,0-19.7-2-25-4.2v-10.1
		c5.2,1.8,13.3,3.9,25.2,3.9c17.5,0,22.2-7.4,22.2-15.3c0-7.7-2.4-13.1-19-14.4c-24.4-2.2-29.4-10.8-29.4-22.3
		c0-11.9,7.7-24.9,31.4-24.9c7.9,0,16.8,1,24.2,4.2v10.1c-6.6-2.2-13.1-3.9-24.4-3.9c-16.6,0-20.2,6.2-20.2,14.4
		C1071.5,141,1074.5,144.9,1090.6,146.2z"/>
	<path class="st0" d="M1227.2,134.1h-55.8v49.7h61.7v10.6H1160v-126h73.1V79h-61.7v44.5h55.8V134.1z"/>
	<path class="st0" d="M1249.9,194.5l31.1-43.2l-29.4-40.8h13.9l22.2,32.9l22.2-32.9h13.9l-29.4,40.8l31.1,43.2h-13.9l-23.9-35.3
		l-23.9,35.3H1249.9z"/>
	<path class="st0" d="M1354.9,189.2v47.2h-11.8v-126h6.6l2.5,6.9c8.7-5.5,17.1-8.6,26.2-8.6c27,0,34.4,19.5,34.4,43.7
		s-7.4,43.7-34.4,43.7C1370.7,196.1,1362.1,193.9,1354.9,189.2z M1401.1,152.5c0-16.6-2.5-33.3-22.7-33.3c-10.9,0-17,1.8-23.5,5.4
		v55.8c6.6,3.5,12.6,5.4,23.5,5.4C1398.5,185.7,1401.1,169.1,1401.1,152.5z"/>
	<path class="st0" d="M1463.2,108.8c28.6,0,31.9,19.5,31.9,43.7v5.4h-55.4c0.7,14.6,4.5,27.9,23.5,27.9c12.1,0,19.5-1.2,27.7-4.7
		v10.1c-9.4,4.2-19.5,5-27.7,5c-28.4,0-35.3-19.5-35.3-43.7S1434.8,108.8,1463.2,108.8z M1439.7,148.3h43.7c0-15-0.8-29.1-20.2-29.1
		C1443.7,119.2,1440.2,133.1,1439.7,148.3z"/>
	<path class="st0" d="M1561.5,120.5c-2.5-0.8-5.9-1.3-10.1-1.3c-11.4,0-18.1,1.8-24.4,5.4v69.9h-11.8v-84h6.6l2.5,7.1
		c7.9-5.9,17.6-8.7,27-8.7c3.9,0,6.9,0.3,10.1,0.8V120.5z"/>
	<path class="st0" d="M1622.2,195.5c-2,0.5-5.4,0.7-7.6,0.7c-13.9,0-26.9-6.4-26.9-22.8v-53.6h-16.8v-5.2l16.8-4.9V86.9l11.8-3.4
		v26.9h26v9.2h-26v52.2c0,10.2,5.5,14.4,16.1,14.4c2.2,0,4.4-0.2,6.6-0.3V195.5z"/>
</g>
</svg>
