<svg width="185" height="55" viewBox="0 0 185 55" fill="none" xmlns="http://www.w3.org/2000/svg">
<path d="M35.5647 31.568V48.121C35.5647 48.41 35.4687 48.649 35.2767 48.794V48.841C34.6047 49.513 33.8847 50.137 33.1157 50.761C31.5327 51.96 29.8537 52.87 28.0787 53.592C19.7297 56.806 9.89373 54.311 4.23273 46.874C-2.67727 37.853 -0.949266 24.899 8.11973 17.99C15.7477 12.136 26.2077 12.472 33.4047 18.229L33.5487 18.326C33.5967 18.374 33.6447 18.422 33.6447 18.47C33.9807 18.901 33.9327 19.477 33.5007 19.814L28.8477 23.364C28.5597 23.604 28.1277 23.604 27.7917 23.412C23.2807 20.437 17.1877 20.485 12.6297 23.94C6.87173 28.307 5.76873 36.559 10.1827 42.316C14.4527 47.929 22.3697 49.128 28.0787 45.147V38.093H21.5057C20.9777 38.093 20.5937 37.708 20.5937 37.181V31.568C20.5937 31.041 20.9777 30.609 21.5057 30.609H34.6517C34.8917 30.609 35.0827 30.705 35.2277 30.896C35.4687 31.088 35.5647 31.28 35.5647 31.568Z" fill="white"/>
<path d="M69.9148 42.076C69.9148 46.058 68.2848 49.513 65.2608 51.912C62.7188 53.88 59.4078 54.982 55.8568 54.982C52.3068 54.982 48.9958 53.879 46.4528 51.912C43.4308 49.513 41.7988 46.058 41.7988 42.076V14.728C41.7988 14.2 42.2308 13.72 42.7588 13.72H48.3728C48.8998 13.72 49.2838 14.2 49.2838 14.728V42.076C49.2838 47.305 55.1858 47.497 55.8568 47.497C56.5288 47.497 62.4308 47.306 62.4308 42.076V14.728C62.4308 14.2 62.8618 13.72 63.3418 13.72H69.0028C69.4828 13.72 69.9148 14.2 69.9148 14.728V42.076V42.076Z" fill="white"/>
<path d="M105.76 53.494C105.856 53.64 105.856 53.783 105.856 53.927C105.856 54.503 105.473 54.936 104.945 54.936H98.516C98.18 54.936 97.891 54.743 97.747 54.503L97.651 54.358L89.446 39.869L88.44 38.045H84.84V53.976C84.84 54.503 84.408 54.936 83.929 54.936H78.315C77.788 54.936 77.356 54.503 77.356 53.976V30.561H84.217L77.836 19.334V19.286L77.356 18.422V14.632C77.356 14.152 77.788 13.72 78.315 13.72H92.325C96.691 13.72 100.482 14.92 103.169 17.223C105.808 19.431 107.343 22.597 107.343 25.907C107.343 30.946 103.744 36.078 96.787 37.614L97.026 38.046L98.083 39.87L105.711 53.399L105.76 53.494ZM92.805 30.561C93.285 30.561 93.765 30.513 94.197 30.465C98.084 29.938 99.811 27.826 99.811 25.907C99.811 23.652 97.508 21.205 92.326 21.205H87.528L91.798 28.785L92.805 30.561Z" fill="white"/>
<path d="M139.856 42.076C139.856 46.058 138.225 49.513 135.202 51.912C132.659 53.88 129.349 54.982 125.799 54.982C122.249 54.982 118.937 53.879 116.394 51.912C113.373 49.513 111.741 46.058 111.741 42.076V14.728C111.741 14.2 112.173 13.72 112.701 13.72H118.314C118.842 13.72 119.225 14.2 119.225 14.728V42.076C119.225 47.305 125.127 47.497 125.799 47.497C126.471 47.497 132.371 47.306 132.371 42.076V14.728C132.371 14.2 132.803 13.72 133.283 13.72H138.945C139.424 13.72 139.856 14.2 139.856 14.728V42.076Z" fill="white"/>
<path d="M172.862 42.752C172.862 43.09 172.813 45.982 170.981 48.924C169.293 51.721 165.821 55 158.732 55C153.139 55 148.751 52.637 146.388 48.441C145.278 46.417 144.845 44.439 144.701 43.185C144.701 43.089 144.652 42.992 144.652 42.896C144.652 42.414 145.039 41.98 145.52 41.931H151.451C151.838 41.98 152.126 42.22 152.222 42.606V42.654C152.222 42.703 152.271 42.752 152.271 42.799C152.367 43.378 152.608 44.197 153.09 44.922C154.103 46.61 155.983 47.477 158.732 47.477C161.673 47.477 163.554 46.658 164.568 45.019C165.242 43.909 165.339 42.704 165.339 42.704C165.339 41.354 165.002 39.763 162.493 38.75C160.662 37.979 158.732 37.931 158.732 37.931C158.395 37.931 155.308 37.882 152.126 36.628C147.256 34.651 144.604 30.793 144.604 25.73C144.604 25.247 144.701 20.763 148.221 17.242C150.728 14.686 154.296 13.385 158.733 13.385C161.578 13.385 165.677 14.012 168.811 17.194C171.849 20.281 172.622 24.186 172.814 26.115V26.212C172.814 26.791 172.428 27.224 171.898 27.224H166.063C165.677 27.176 165.339 26.839 165.243 26.453V26.307C165.099 25.633 164.858 24.669 164.376 23.703C163.701 22.498 162.398 20.906 158.733 20.906C156.37 20.906 154.634 21.437 153.525 22.546C152.223 23.848 152.128 25.729 152.128 25.729C152.128 27.079 152.464 28.622 154.972 29.635C156.805 30.358 158.734 30.406 158.734 30.406C159.071 30.406 162.158 30.455 165.34 31.758C170.209 33.781 172.862 37.688 172.862 42.752Z" fill="white"/>
<path d="M184.002 5.712C184.002 8.711 181.503 11.211 178.361 11.211C175.362 11.211 172.862 8.711 172.862 5.712C172.862 2.571 175.362 0 178.361 0C181.503 0 184.002 2.571 184.002 5.712Z" fill="#CE2232"/>
</svg>
