<svg width="600" height="262" viewBox="0 0 600 262" fill="none" xmlns="http://www.w3.org/2000/svg">
<path d="M89.1983 261.628H0V0H89.1983V27.3613H27.5499V234.041H89.1983V261.628Z" fill="#E3173E"/>
<path d="M600 261.628H511.027V234.041H572.676V27.3613H511.027V0H600V261.628Z" fill="#E3173E"/>
<path d="M221.754 128.44C221.754 112.385 217.463 107.41 214.302 104.018C208.882 98.3649 199.849 94.7468 190.817 94.7468C186.978 94.7468 171.396 95.1991 160.105 111.254V97.6865H123.749V102.435H138.653V186.78H128.942H123.974H114.264V97.6865H77.4558V102.435H93.0373V186.78H77.2299V191.529H124.2H129.168H175.913V186.78H160.557V146.982C160.783 129.57 161.009 116.003 171.622 107.184C175.913 103.792 181.107 101.757 186.3 101.757C189.688 101.757 197.365 102.887 199.624 112.159C200.075 114.42 200.301 116.229 200.527 125.5V186.78H186.075V191.529H237.109V186.78H221.98V128.44H221.754Z" fill="white"/>
<path d="M372.149 187.459C366.955 187.459 366.955 182.031 366.955 174.343V126.631C366.955 118.038 366.955 110.35 360.632 103.792C354.987 98.3648 344.147 94.7468 333.308 94.7468C310.275 94.7468 295.597 107.636 295.597 118.942C295.597 124.595 299.435 129.57 305.533 129.57C311.63 129.57 315.92 124.822 315.92 119.847C315.92 114.646 311.178 111.706 311.178 108.993C311.178 105.601 319.533 99.4955 329.921 99.4955C345.051 99.4955 345.502 110.123 345.954 116.907V139.52C337.599 139.52 324.953 140.424 315.017 143.364C299.661 148.113 289.274 158.062 289.274 171.856C289.274 172.986 289.274 174.117 289.499 175.022C288.596 179.092 286.338 186.78 276.176 186.78C264.885 186.78 265.111 177.283 265.111 170.047V102.209H289.499V97.4603H265.111V59.6973H261.272C260.143 64.4459 258.562 71.2297 249.755 82.0838C244.11 89.0937 237.335 95.4252 228.754 99.2693V102.435H243.658V159.871C243.658 171.404 243.658 176.604 245.465 180.901C248.852 189.946 257.885 194.242 269.176 194.242C282.725 194.242 288.822 188.363 291.758 182.484C295.822 189.946 304.629 194.242 314.791 194.242C330.373 194.242 340.309 185.423 345.277 175.248C345.728 179.77 346.406 185.423 351.599 189.946C354.987 192.659 359.729 194.242 364.697 194.242C374.181 194.242 379.601 189.041 381.859 186.78L379.149 183.614C377.794 184.745 375.31 187.459 372.149 187.459ZM345.728 151.731C345.277 163.263 344.825 171.404 337.599 178.413C335.566 180.222 331.276 183.614 324.953 183.614C317.727 183.614 310.5 178.866 310.5 167.559C310.5 148.791 328.114 143.59 345.728 143.364V151.731Z" fill="white"/>
<path d="M427.926 189.041C416.184 189.041 409.861 182.484 407.377 175.022C405.119 168.69 405.119 159.871 405.119 152.183C405.119 142.007 405.344 120.977 408.957 112.159C413.474 101.078 422.958 99.4955 429.507 99.4955C441.701 99.4955 447.572 105.149 447.572 107.184C447.572 108.088 447.121 108.541 446.443 109.445C444.637 111.254 441.927 114.872 441.927 120.073C441.927 126.178 445.992 132.058 452.54 132.058C459.089 132.058 464.057 126.631 464.057 119.395C464.057 108.088 451.186 94.7468 429.959 94.7468C403.086 94.7468 380.279 116.003 380.279 145.399C380.279 172.308 400.602 194.242 427.249 194.242C451.863 194.242 463.831 177.057 466.993 161.002H461.347C458.186 174.569 447.121 189.041 427.926 189.041Z" fill="white"/>
<path d="M525.706 173.891C525.028 177.509 523.448 186.78 512.157 186.78C500.866 186.78 501.091 177.283 501.091 170.047V102.209H525.48V97.4603H501.091V59.6973H497.704C496.575 64.4459 494.994 71.2297 486.187 82.0838C480.542 89.0937 473.767 95.4252 465.186 99.2693V102.435H480.09V159.871C480.09 171.404 480.09 176.604 481.897 180.901C485.284 189.946 494.317 194.242 505.608 194.242C526.835 194.242 529.996 179.318 531.125 173.891H525.706V173.891Z" fill="white"/>
<path d="M101.393 77.7874C109.998 77.7874 116.974 70.8018 116.974 62.1847C116.974 53.5675 109.998 46.582 101.393 46.582C92.7871 46.582 85.8111 53.5675 85.8111 62.1847C85.8111 70.8018 92.7871 77.7874 101.393 77.7874Z" fill="white"/>
</svg>
