<svg width="315" height="47" viewBox="0 0 315 47" fill="none" xmlns="http://www.w3.org/2000/svg">
<path d="M258.453 0C258.453 0 258.453 32.3203 258.453 32.3203C258.453 33.9172 259.288 34.8501 260.148 35.4375C261.071 36.0571 262.425 36.3672 264.25 36.3672C265.404 36.3672 266.93 35.9844 266.93 35.9844C266.93 35.9844 266.93 33.086 266.93 33.0859C266.472 33.1143 266.067 33.1406 265.617 33.1406C262.901 33.1406 262.5 32.0794 262.5 30.8984C262.5 30.8984 262.5 1.7e-05 262.5 0H258.453ZM172.977 0.328125C169.926 0.328125 167.169 1.2849 165.211 3.00781C163.31 4.68839 162.258 7.00817 162.258 9.51562C162.258 12.2772 163.375 14.4351 165.703 16.1328C167.756 17.6319 170.471 18.5999 173.086 19.5234C177.631 21.1401 181.891 22.6155 181.891 26.7422C181.891 28.5774 181.266 30.1508 180.086 31.2266C178.788 32.4095 176.921 32.9766 174.453 32.9766C170.128 32.9766 166.979 30.5817 165.211 25.9219C165.211 25.9219 161.328 26.9609 161.328 26.9609C162.164 28.8507 163.587 31.578 165.648 33.4141C167.909 35.442 170.714 36.4219 174.234 36.4219C178.403 36.4219 181.567 35.3467 183.641 33.1953C185.79 30.9557 186.266 28.0896 186.266 26.0859C186.266 23.2148 185.052 20.9978 182.602 19.25C180.462 17.7155 177.694 16.7264 175 15.8047C170.611 14.3037 166.422 12.8753 166.469 9.1875C166.484 7.46793 167.081 6.12934 168.164 5.19531C169.268 4.24646 170.842 3.77344 172.867 3.77344C174.994 3.77346 176.891 4.368 178.336 5.52344C179.665 6.57577 180.632 8.1375 181.07 9.89844C181.07 9.89844 184.844 9.40625 184.844 9.40625C183.188 3.76241 179.142 0.328125 172.977 0.328125ZM0 0.820312V35.9297H4.04688V3.82812L4.15625 3.9375L13.7812 35.9297H16.8984L26.5781 3.9375L26.6328 3.82812V35.9297H30.6797V0.820312H23.9531L15.3672 29.0391V29.1484L15.3125 29.0391L6.72656 0.820312H0ZM192.664 1.53125V9.95312H188.781V13.1797C188.781 13.1797 192.664 13.1797 192.664 13.1797C192.664 13.1797 192.664 31.2257 192.664 32.3203C192.664 33.9172 193.391 34.8501 194.25 35.4375C195.174 36.0571 196.525 36.3672 198.352 36.3672C199.507 36.3672 201.086 35.9844 201.086 35.9844C201.086 35.9844 201.086 33.086 201.086 33.0859C200.637 33.1143 200.166 33.1406 199.719 33.1406C196.999 33.1406 196.711 32.0794 196.711 30.8984C196.711 30.8984 196.711 13.1797 196.711 13.1797H201.086V9.95312H196.711V1.53125H192.664ZM47.0859 9.46094C43.6782 9.46094 40.7901 10.834 38.7734 13.3984C36.9018 15.7918 35.875 19.1727 35.875 22.9141C35.875 26.6589 36.9018 30.0337 38.7734 32.4297C40.7901 35.001 43.6782 36.3672 47.0859 36.3672C50.5076 36.3672 53.387 35.001 55.3984 32.4297C57.2703 30.0337 58.2969 26.6589 58.2969 22.9141C58.2969 19.1727 57.2703 15.7918 55.3984 13.3984C53.387 10.834 50.5076 9.46094 47.0859 9.46094ZM280.547 9.51562C278.817 9.51562 277.209 9.83357 275.844 10.4453C274.508 11.0475 273.321 11.954 272.398 13.125C270.563 15.4233 269.5 18.8352 269.5 22.9688C269.5 27.5692 270.822 31.0794 273.219 33.4141C275.747 35.8819 278.969 36.3672 281.203 36.3672C287.01 36.3672 289.858 33.2255 291.047 30.3516C291.047 30.3516 287.82 28.7656 287.82 28.7656C287.036 30.5154 285.233 33.1953 281.203 33.1953C278.9 33.1953 277.016 32.2523 275.68 30.5156C274.389 28.8351 273.663 26.5089 273.656 23.7344C273.656 23.7344 291.375 23.7344 291.375 23.7344C291.375 23.7344 291.375 21.2734 291.375 21.2734C291.375 17.0225 290.243 13.8524 288.148 11.9219C286.365 10.282 283.863 9.51562 280.547 9.51562ZM88.5391 9.57031C83.9734 9.57031 77.4922 12.6424 77.4922 22.9688C77.4922 32.9952 83.9532 36.3672 88.3203 36.3672C90.8692 36.3672 93.1853 34.9551 94.7734 32.9219C94.7734 32.9219 94.9922 32.8125 94.9922 32.8125C94.9922 32.8125 94.9922 37.7344 94.9922 37.7344C94.9922 41.1864 92.0045 43.3125 88.8125 43.3125C85.7091 43.3125 82.9618 42.72 80.7188 41.6719C80.7187 41.6719 80.7188 45.1719 80.7188 45.1719C82.6076 45.9815 85.6815 46.4844 88.3203 46.4844C95.504 46.4844 98.9297 42.5307 98.9297 36.8047C98.9297 36.8047 98.9297 10.0625 98.9297 10.0625H95.9219L95.0469 12.7969C93.5622 10.8624 91.6184 9.57031 88.5391 9.57031ZM114.68 9.57031C108.932 9.57031 106.211 13.0133 105.055 15.1484L108.281 16.8438C108.734 15.6237 110.364 12.7969 114.734 12.7969C118.18 12.7969 119.93 14.3177 119.93 17.3359V18.2656C119.93 18.2656 119.958 18.5482 119.875 18.6484C119.747 18.81 119.384 18.9422 118.508 19.0312C113.683 19.5695 110.476 20.362 108.117 21.875C105.556 23.521 103.961 25.8255 103.961 28.9844C103.961 31.2283 105.047 33.1435 106.477 34.5078C107.805 35.7643 109.616 36.4179 111.617 36.4766C115.877 36.6132 118.681 34.8403 120.039 32.7578C120.144 34.1887 120.657 35.0063 121.789 35.6016C122.852 36.1692 124.595 36.0563 125.344 35.875C125.344 35.875 125.344 33.1406 125.344 33.1406C124.442 33.0956 123.867 32.6666 123.867 31.5547C123.867 31.5547 123.867 19.0312 123.867 19.0312C123.867 19.0312 123.867 17.3906 123.867 17.3906C123.867 14.8062 122.853 12.6863 120.914 11.3203C119.315 10.1859 117.082 9.57031 114.68 9.57031ZM142.516 9.57031C139.882 9.57033 137.186 10.9347 134.914 13.5078V10.0625H130.867V35.9844H134.914C134.914 35.9844 134.914 16.7344 134.914 16.7344C136.291 15.2629 139.378 12.7969 142.188 12.7969C145.004 12.7969 146.234 14.1786 146.234 17.2812C146.234 17.2812 146.234 35.9844 146.234 35.9844H150.281V17.1719C150.281 11.5712 146.298 9.57031 142.516 9.57031ZM215.742 9.57031C209.998 9.57031 207.277 13.0133 206.117 15.1484C206.117 15.1484 209.344 16.8438 209.344 16.8438C209.798 15.6237 211.426 12.7969 215.797 12.7969C219.242 12.7969 220.992 14.3177 220.992 17.3359C220.992 17.3359 220.992 18.2656 220.992 18.2656C220.992 18.2656 220.964 18.5482 220.883 18.6484C220.757 18.81 220.45 18.9422 219.57 19.0312C214.746 19.5686 211.538 20.362 209.18 21.875C206.62 23.521 205.023 25.8255 205.023 28.9844C205.023 31.2283 206.108 33.1426 207.539 34.5078C208.868 35.7643 210.68 36.4179 212.68 36.4766C216.936 36.6132 219.743 34.8403 221.102 32.7578C221.209 34.1881 221.718 35.0063 222.852 35.6016C223.912 36.1692 225.656 36.0563 226.406 35.875C226.406 35.875 226.406 33.1406 226.406 33.1406C225.506 33.0956 224.93 32.6666 224.93 31.5547C224.93 31.5547 224.93 19.0312 224.93 19.0312C224.93 19.0312 224.93 17.3906 224.93 17.3906C224.93 14.8062 223.863 12.6863 221.922 11.3203C220.322 10.1859 218.143 9.57031 215.742 9.57031ZM243.578 9.57031C240.937 9.57033 238.249 10.9347 235.977 13.5078V10.0625H231.93V35.9844H235.977C235.977 35.9844 235.977 16.7344 235.977 16.7344C237.356 15.2621 240.437 12.7969 243.25 12.7969C246.062 12.7969 247.297 14.1786 247.297 17.2812V35.9844H251.344V17.1719C251.344 11.5712 247.361 9.57031 243.578 9.57031ZM75.9609 9.67969C71.855 9.67969 69.4216 11.2716 67.3203 15.0391V14.7656V10.0625H63.2734V35.9297H67.3203C67.3203 35.9297 67.3203 21.2734 67.3203 21.2734C68.3194 15.9492 71.1382 13.4531 75.9609 13.4531V9.67969ZM294.109 10.0078L303.133 35.7109C303.133 35.7109 303.133 35.9297 303.133 35.9297C302.594 38.3931 301.034 41.434 299.633 42.3828C298.395 43.2227 297.055 43.3125 296.023 43.3125C295.526 43.3125 294.497 43.1444 294.055 43.0391C294.055 43.0391 294.055 46.1562 294.055 46.1562C294.614 46.2936 295.907 46.5391 296.734 46.5391C298.663 46.5391 300.289 46.0563 301.656 45.0625C303.293 43.8728 305.106 40.7722 305.977 38.1172C305.977 38.1172 315 10.0078 315 10.0078H311.062L305.156 29.9141L305.102 30.3516L304.992 29.9141L298.047 10.0078H294.109ZM47.0859 12.6875C51.4426 12.6875 54.0312 16.5115 54.0312 22.9141C54.0312 29.3184 51.4426 33.1406 47.0859 33.1406C42.7363 33.1406 40.1406 29.3184 40.1406 22.9141C40.1406 16.5115 42.7363 12.6875 47.0859 12.6875ZM88.8125 12.7422C91.0956 12.7422 93.1 13.7287 94.9922 16.0781C94.9922 16.0781 94.9922 28.4375 94.9922 28.4375C93.9448 31.4186 90.9451 33.1406 88.8125 33.1406C84.6392 33.1406 81.7578 30.542 81.7578 22.75C81.7579 16.198 84.3437 12.7422 88.8125 12.7422ZM280.656 12.7422C285.293 12.7422 287.366 15.1939 287.383 20.5078C287.383 20.5078 273.766 20.5078 273.766 20.5078C274.118 15.1982 276.343 12.7422 280.656 12.7422ZM120.039 21.875C120.039 21.875 120.039 28.4375 120.039 28.4375C119.853 30.7032 115.619 33.4453 112.164 33.25C110.258 33.1455 108.422 31.6107 108.227 29.0938C107.91 24.8877 111.071 23.1414 118.125 22.3672C118.616 22.3223 119.565 22.1481 120.039 21.875ZM221.102 21.875C221.102 21.875 221.102 28.4375 221.102 28.4375C220.915 30.7022 216.681 33.4453 213.227 33.25C211.324 33.1446 209.479 31.6099 209.289 29.0938C208.968 24.8877 212.132 23.1414 219.188 22.3672C219.675 22.3223 220.631 22.1481 221.102 21.875Z" fill="white"/>
</svg>
