<svg width="749" height="78" viewBox="0 0 749 78" fill="none" xmlns="http://www.w3.org/2000/svg">
<path d="M97 0C90.352 0 85 5.352 85 12V57C85 63.648 90.352 69 97 69H113V78H128V69H145C151.648 69 157 63.648 157 57V12C157 5.352 151.648 0 145 0H97ZM100 12H141V56H128V49H113V56H100V12Z" fill="white"/>
<path d="M14 0C7.352 0 2 5.352 2 12V28C2 34.648 7.352 40 14 40H58H60V56H58H31H19H17H0V57C0 63.648 5.352 69 12 69H17H19H61C67.648 69 73 63.648 73 57V39C73 32.352 67.648 27 61 27H58H15V12H58V18H72V12C72 5.352 66.648 0 60 0H14Z" fill="white"/>
<path d="M169 0V12V57C169 63.648 174.352 69 181 69H189H198H199H207H224C230.648 69 236 63.648 236 57V12V0H227H222H221V56H207H199H198H189H184V0H181H169Z" fill="white"/>
<path d="M273.5 1L239 69H254L261.625 54H300.375L308 69H323L288.5 1L288 0H274L273.5 1ZM281 15.781L294.313 42H267.688L281 15.781Z" fill="white"/>
<path d="M330 0V12V31V69H345V43H354.5L379.5 69H399.5L374.5 43H382C388.648 43 394 37.648 394 31V12C394 5.352 388.648 0 382 0H345H342H330ZM345 12H375C377.216 12 379 13.784 379 16V27C379 29.216 377.216 31 375 31H345V12Z" fill="white"/>
<path d="M407 0V69H465V56H422V12H465V0H407Z" fill="white"/>
<path d="M460 27H435V40H460V27Z" fill="#E20A16"/>
<path d="M497 0V69H555V56H512V12H555V0H497Z" fill="white"/>
<path d="M550 27H525V40H550V27Z" fill="#E20A16"/>
<path d="M567 0V3.5V69H581V20.188L617 63.126L618 64.314L621.938 69H625H631H632V0H631H617V46.438L581 3.5L578.063 0H567Z" fill="white"/>
<path d="M660 0H644V69H660V0Z" fill="white"/>
<path d="M667.938 0L697.969 33.344L667.75 69H685.75L707.25 43.656L730.063 69H748.063L715.969 33.344L744.25 0H726.25L706.687 23.063L685.938 0H667.938Z" fill="white"/>
</svg>
