<svg width="207" height="52" viewBox="0 0 207 52" fill="none" xmlns="http://www.w3.org/2000/svg">
<path d="M79.9 13.1C74.9 13.2 73 15.7 70.7 18.7V18.3C70.7 15.6 68.6 13.3 66 13.1H65.7C62.7 13.1 60.4 15.5 60.4 18.4V46.3C60.4 49.3 62.8 51.6 65.7 51.6C68.7 51.6 71 49.2 71 46.3V35.8C71.2 29.2 70.9 22.8 80.7 22.8C82.9 22.8 84.7 21 84.7 18.2C84.8 15.3 83 13.2 79.9 13.1Z" fill="#58595B"/>
<path d="M49.9 13.4C47.1 13.4 45.5 15.2 44.8 17.4L39 36.4L33.1 17.6C32.3 15.1 30.4 13.4 27.7 13.4H27.1C24.4 13.4 22.5 15.1 21.7 17.6L15.9 36.4L10.2 17.5C9.4 15.1 7.7 13.4 5.1 13.4C2 13.4 0 15.8 0 18.2C0 19.1 0.3 20.1 0.5 20.8L9.6 47C10.7 50.3 12.9 51.7 15.4 51.7H15.7C18.3 51.7 20.4 50.2 21.4 47.2L27.4 28.5L33.2 47.2C34.2 50.3 36.3 51.7 38.9 51.7H39.2C41.8 51.7 43.9 50.2 45 47L54.4 20.4C54.5 19.9 54.7 18.9 54.7 18.2C54.8 15.7 52.8 13.4 49.9 13.4Z" fill="#58595B"/>
<path d="M110.7 13.2C105.4 13.2 102.2 16 99.8 19.2V18.8C99.8 15.9 97.4 13.5 94.5 13.5C91.6 13.5 89.2 15.9 89.2 18.8V46.2999C89.2 49.2 91.6 51.6 94.5 51.6C97.4 51.6 99.8 49.2 99.8 46.2999V30.3C99.8 25.3 102.4 22.6999 106.4 22.6999C110.4 22.6999 112.8 25.3 112.8 30.3V46.2C112.8 49.1 115.2 51.5 118.1 51.5C121 51.5 123.4 49.1 123.4 46.2V27C123.3 18.4 118.7 13.2 110.7 13.2Z" fill="#58595B"/>
<path d="M193.6 13.2C188.3 13.2 185.1 16 182.7 19.2V5.3C182.7 2.4 180.3 0 177.4 0C174.5 0 172.1 2.4 172.1 5.3V46.2C172.1 49.1 174.5 51.5 177.4 51.5C180.3 51.5 182.7 49.1 182.7 46.2V30.3C182.7 25.3 185.3 22.7 189.3 22.7C193.3 22.7 195.7 25.3 195.7 30.3V46.2C195.7 49.1 198.1 51.5 201 51.5C203.9 51.5 206.3 49.1 206.3 46.2V27C206.2 18.5 201.6 13.2 193.6 13.2Z" fill="#58595B"/>
<path d="M160 39.1C159.9 39.1 159.8 39.1 159.6 39.1L150.2 44.5L139.9 38.5L140 26.6L144.3 24.2C144.3 24.2 147.7 22.3 147.4 22.4L150.4 20.7L158.5 25.4C158.8 25.5 159.2 25.5 159.5 25.5C162.1 25.5 164.3 23.4 164.3 20.8C164.3 19 163.3 17.7 162.6 17.2C159.5 14.6 155.5 13 149.9 13C138.5 13 130.4 21.7 130.4 32.4V32.5C130.4 43.1 138.6 51.7 149.8 51.7C155.9 51.7 159.9 49.8 163 46.9C163.9 46.1 164.5 45 164.5 43.6C164.5 41.1 162.5 39.1 160 39.1Z" fill="#58595B"/>
<path d="M144.2 29.1L144.1 36.1L150.2 39.7L156.3 36.2V29.2L150.3 25.6L144.2 29.1Z" fill="#26A9E0"/>
</svg>
