<svg width="108" height="148" viewBox="0 0 108 148" fill="none" xmlns="http://www.w3.org/2000/svg">
<path fill-rule="evenodd" clip-rule="evenodd" d="M43.6524 4.16967C43.6332 4.17003 43.614 4.17039 43.5948 4.17076C41.2037 4.21908 38.8131 4.27531 36.4265 4.37761C36.9951 5.65163 37.5409 6.91756 38.0074 8.20675C38.1969 8.72353 37.7745 9.67479 37.2837 10.0955C33.811 13.0498 30.3292 15.771 25.3657 16.9417C22.3188 17.6642 19.2904 18.4392 16.2776 19.2578C16.2883 20.19 16.5782 21.1172 17.1272 21.8193C18.5544 23.6467 18.1302 25.7723 16.2789 27.2149C16.1214 27.3375 15.9637 27.4601 15.8059 27.5827C13.4792 29.3911 11.1386 31.2102 9.06356 33.2807C6.48025 35.8517 4.85217 38.8986 4.25626 42.3664C7.00469 40.1123 9.7868 37.8897 12.5802 35.6715C13.1008 35.2645 13.6647 34.8598 14.2765 34.59C24.1442 30.1425 33.6512 25.1964 42.0006 18.4989C42.2101 18.6144 42.3566 18.6863 42.4589 18.7365C42.5974 18.8045 42.655 18.8327 42.6787 18.8762C45.1546 23.6152 45.1301 23.633 42.7819 25.3288C42.3043 25.6737 41.7306 26.088 41.0623 26.6256C37.802 29.2461 34.2311 31.2812 30.2287 32.9047C24.1148 35.3855 18.0582 37.9837 11.9986 40.5833C9.60207 41.6113 7.20511 42.6397 4.80382 43.6611C4.57271 43.7592 4.33762 43.8484 4.06218 43.9037C4.02036 44.4132 3.9996 44.931 4.00007 45.457C4.00295 48.245 4.00474 51.0329 4.00582 53.8208C6.57191 52.7325 9.14006 51.6445 11.7103 50.5575C11.893 50.8113 12.0802 51.0674 12.2651 51.3167C11.988 51.5253 11.7217 51.7639 11.4556 52.0025C10.864 52.5325 10.2727 53.0623 9.56418 53.2626C7.73499 53.7717 5.87376 54.1944 4.0061 54.5992C4.00731 58.1381 4.00744 61.6771 4.00721 65.2158C5.78606 63.6026 7.55697 61.9829 9.31303 60.3512C10.6737 59.0821 12.0596 58.6339 13.9386 58.6042C21.9341 58.4555 29.5484 60.1317 36.9755 62.5029C47.3774 65.8459 57.2999 70.1562 66.9439 74.9948C70.663 76.8652 71.4462 79.5062 69.2201 82.8289C67.9538 84.7212 66.6721 86.6055 65.3906 88.4898C63.3106 91.5488 61.2309 94.6062 59.2177 97.6963C58.2382 99.1923 56.9962 99.9394 55.14 100.303C52.051 100.907 48.9779 101.638 45.9756 102.521C44.0257 103.098 42.7974 102.569 41.3134 101.423C40.9597 101.148 40.606 100.873 40.2523 100.597C35.8256 97.1457 31.3888 93.6864 26.6191 90.6602C23.7196 88.8246 20.1921 87.5437 16.7332 86.707C12.4073 85.653 8.08509 85.5203 4.00673 86.8093C4.00696 88.7327 4.00733 90.6562 4.00768 92.5796C4.00809 94.81 4.00849 97.0395 4.00872 99.269C4.66408 99.5503 5.31928 99.8316 5.97431 100.113C11.4788 102.474 16.9727 104.832 22.4707 107.186C22.4505 107.354 22.4339 107.521 22.4172 107.687C22.4037 107.822 22.3902 107.956 22.3748 108.092C21.7552 108.253 21.1362 108.419 20.5166 108.584C19.2209 108.93 17.9235 109.277 16.6168 109.593C15.7597 109.801 14.8739 110.091 13.9861 110.383C11.8537 111.082 9.71006 111.785 7.92715 111.344C6.44485 110.975 5.20308 109.805 4.00807 108.503C4.00708 111.897 4.00507 115.291 4.00135 118.686C4.57403 118.786 5.12407 119.001 5.4157 119.296C9.87305 123.834 14.2552 128.433 18.6354 133.03C19.6533 134.098 20.6712 135.166 21.6899 136.233C21.721 136.271 21.7176 136.336 21.7097 136.486C21.7042 136.588 21.6967 136.731 21.6967 136.933C19.8486 137.731 17.9711 138.489 16.0651 139.218C17.0931 139.648 18.1868 139.997 19.3484 140.261C24.9011 141.523 30.6126 142.251 36.2975 142.759C40.7816 143.16 45.2997 143.202 49.8143 143.245C50.7796 143.254 51.7448 143.263 52.7094 143.275C52.9316 143.278 53.1538 143.28 53.376 143.282C54.3854 142.994 55.3956 142.706 56.4095 142.417C58.6747 141.771 60.9578 141.121 63.2885 140.457C63.6851 141.363 64.0619 142.223 64.4348 143.075C66.8596 142.989 69.2849 142.844 71.7033 142.635C71.6909 142.605 71.6785 142.574 71.6661 142.544C71.2273 141.468 70.8095 140.444 70.3891 139.425C70.6265 139.292 70.8549 139.162 71.0809 139.027C71.8663 139.694 72.6518 140.358 73.4738 141.053C73.9633 141.466 74.4657 141.89 74.9889 142.333C76.8826 142.144 78.7735 141.924 80.6626 141.671C80.9224 141.636 81.183 141.602 81.4436 141.567C83.8104 141.253 86.1852 140.938 88.4993 140.378C97.4622 138.208 103.977 129.764 103.981 120.425C103.982 118.347 103.982 116.269 103.983 114.192C103.549 115.804 103.126 117.419 102.725 119.037C102.289 120.832 102.1 122.674 101.912 124.514C101.824 125.377 101.736 126.241 101.622 127.098C101.438 127.139 101.252 127.176 101.066 127.215C100.998 127.228 100.93 127.242 100.862 127.256C97.8491 120.996 94.8364 114.729 91.8101 108.432C90.9157 106.57 90.0196 104.707 89.122 102.839C89.8278 102.214 90.5032 101.59 91.1675 100.977C92.6223 99.6334 94.0227 98.3404 95.5654 97.1961C97.6789 95.6266 101.196 95.478 103.986 96.4162C103.986 94.4607 103.986 92.5061 103.986 90.5507C103.986 82.4421 103.986 74.3341 103.988 66.2259C103.919 66.0638 103.851 65.9016 103.781 65.7396C103.503 65.0848 103.224 64.4304 102.949 63.7766C102.64 63.0359 102.331 62.2952 102.022 61.5545C99.9937 56.6973 97.9658 51.8393 95.9691 46.9743C95.7341 46.4004 95.4671 45.671 95.6725 45.1725C96.2592 43.7279 96.9539 42.3263 97.6493 40.9225C97.8771 40.4641 98.1041 40.0055 98.3279 39.5451C98.3911 39.5541 98.4542 39.5632 98.5182 39.5724C98.8235 39.6164 99.1329 39.6608 99.4462 39.7006C100.821 46.1389 102.201 52.5728 103.582 59.0108C103.718 59.6455 103.854 60.2801 103.99 60.9148C103.992 55.8579 103.995 50.8008 104 45.7436C104.006 40.7646 102.258 36.5133 98.7476 33.0815C97.9658 32.3147 97.1489 31.5816 96.312 30.8696C96.3008 30.9671 96.2888 31.0647 96.2752 31.1623C95.9331 33.6593 95.0403 36.513 92.8349 39.0695C90.3873 33.1951 88.154 27.8375 85.7136 22.0134C87.6792 21.2216 89.624 20.4375 91.7414 19.5827C91.8477 18.5311 91.5152 17.4658 90.7247 16.4313C90.0108 15.4904 89.7151 14.4974 89.855 13.3499C89.8965 12.9982 89.9365 12.6463 89.9765 12.2944C90.0612 11.5485 90.1459 10.8027 90.2426 10.0595C87.3874 11.0412 84.728 11.9598 81.7273 12.9972C81.3477 12.1506 80.9712 11.3201 80.5987 10.5C79.7442 8.61685 78.9152 6.78918 78.1414 4.94974C76.701 4.7779 75.2593 4.62751 73.815 4.5128C72.3892 4.40091 70.9609 4.31558 69.5313 4.24963C69.3569 4.51383 69.1193 4.77758 68.8206 5.04205C67.0717 6.5901 65.2863 8.09927 63.437 9.55125C60.0123 12.245 56.5305 14.8974 53.0487 17.5385C52.5334 17.9301 51.9717 18.2694 51.3451 18.6479C51.0278 18.8395 50.694 19.0412 50.3409 19.2649C50.1805 18.929 50.0308 18.6287 49.8916 18.3494C49.6567 17.8779 49.452 17.4671 49.277 17.0491C48.9891 16.3502 48.7209 15.6416 48.423 14.8549C48.2649 14.4372 48.0984 13.9974 47.9162 13.5255C53.0171 10.3614 58.0975 7.21138 63.1832 4.06115C61.8648 4.03882 60.5464 4.02394 59.2288 4.01096C54.4863 3.96924 49.742 4.05379 44.9969 4.14405C44.6567 4.39229 44.3155 4.64131 43.9732 4.89112C43.8636 4.64443 43.7568 4.40429 43.6524 4.16967ZM17.8144 8.38775C20.2435 7.36001 22.6853 6.35774 25.1299 5.36224C23.4702 5.60364 21.8152 5.89748 20.1658 6.25699C18.9851 6.51518 18.0904 7.30312 17.8144 8.38775ZM49.6423 36.2789C49.2134 36.3619 48.9273 36.4173 48.6628 36.5176C46.6379 37.2953 44.6037 38.0565 42.5694 38.8178C37.3787 40.7604 32.1872 42.7032 27.1466 44.9209C24.2391 46.2014 22.1894 48.5463 20.0833 50.9555C19.568 51.5449 19.0494 52.1382 18.514 52.7206C34.4323 53.1515 48.2741 59.0362 62.119 64.9222C62.5279 65.096 62.9367 65.2698 63.3456 65.4435C63.4092 65.3745 63.4728 65.3047 63.5366 65.2348C63.6353 65.1264 63.7343 65.0177 63.8342 64.9107C62.4487 61.8959 61.0635 58.882 59.6758 55.863C56.6663 49.3151 53.6456 42.7431 50.5875 36.0854C50.2045 36.17 49.898 36.2293 49.6423 36.2789ZM53.5989 23.589C60.8342 20.8816 68.0672 18.1673 75.5398 15.3617C75.0366 14.2013 74.5611 13.1085 74.0928 12.0319C73.5135 10.7006 72.9451 9.39399 72.348 8.01464C68.1083 11.3207 64.0418 14.492 60.0391 17.6135C57.7436 19.4036 55.4691 21.1775 53.1948 22.951C53.2891 23.0956 53.3772 23.2362 53.4654 23.3767C53.5096 23.4473 53.5539 23.5178 53.5989 23.589ZM81.7369 71.6725L80.2662 74.3019C83.151 76.0128 86.019 77.7158 88.8942 79.4231C92.6902 81.6774 96.499 83.9397 100.376 86.2355C101.136 85.5235 101.837 84.857 102.627 84.1051C102.935 83.8118 103.257 83.5058 103.602 83.1789C101.662 78.3212 99.7419 73.5106 97.8307 68.7214C95.9363 63.9739 94.0499 59.2477 92.1611 54.518L92.1443 54.519C91.8645 54.5369 91.5871 54.5548 91.3098 54.566C88.138 60.2291 84.9702 65.8924 81.7369 71.6725ZM80.024 82.3399C79.8809 82.4453 79.7394 82.55 79.5995 82.6571C80.5251 84.6045 81.4556 86.5488 82.386 88.4938C83.1941 90.1831 84.003 91.8732 84.8096 93.5665C85.3219 93.4611 85.8239 93.3572 86.3171 93.2557C89.333 92.6332 92.014 92.0802 94.6909 91.532C94.7541 91.2939 94.8244 91.0597 94.894 90.8296L94.9124 90.7705C93.2977 89.8107 91.6831 88.851 90.0684 87.8913C86.8239 85.963 83.5794 84.0348 80.3365 82.1065C80.2318 82.1848 80.1271 82.2623 80.024 82.3399ZM70.1477 90.0361C68.4868 92.4957 66.7724 95.0337 64.9096 97.8018C69.7521 97.0379 73.7704 96.3315 77.855 94.7972C77.1645 93.3268 76.5056 91.9252 75.863 90.5587C75.1647 89.0739 74.4858 87.63 73.807 86.1836C73.5101 86.1284 73.2091 86.0653 72.9159 86.0046L72.8754 85.9958C71.9719 87.3351 71.068 88.6736 70.1477 90.0361ZM56.4333 117.044C57.009 117.729 57.6052 118.439 58.2428 119.2C60.327 117.735 62.3952 116.286 64.4498 114.847C69.6157 111.228 74.6953 107.671 79.725 104.06C81.7345 102.612 81.617 102.461 79.7738 100.103L79.7314 100.05C78.6328 100.301 77.5303 100.553 76.4249 100.806C71.2577 101.986 66.0275 103.181 60.8159 104.408C60.2817 104.536 59.6766 104.858 59.373 105.252C57.8343 107.252 56.332 109.279 54.8191 111.32C54.3228 111.989 53.8253 112.66 53.325 113.332C54.3802 114.6 55.3721 115.781 56.4333 117.044ZM60.9232 135.709C58.9848 132.554 57.1994 129.646 55.2291 126.435C52.4805 127.857 49.804 129.241 47.1649 130.606C42.3944 133.074 37.7459 135.478 33.0142 137.927C33.3228 138.259 33.6113 138.562 33.8819 138.846C34.5084 139.502 35.0396 140.059 35.5051 140.651C36.7677 142.261 38.1764 142.524 40.3088 141.829C43.8176 140.695 47.379 139.698 50.9436 138.7C52.6349 138.226 54.3269 137.753 56.0145 137.264C57.0766 136.95 58.1277 136.611 59.2893 136.235C59.8083 136.067 60.3493 135.892 60.9232 135.709ZM50.0553 107.033C49.4822 107.212 48.8608 107.406 48.1331 107.636L48.2191 107.718C48.9718 108.434 49.4126 108.853 50.0463 109.452C50.3405 109.12 50.6125 108.814 50.8707 108.523C51.2819 108.059 51.6582 107.636 52.0327 107.209C51.8386 107.008 51.6514 106.806 51.4551 106.594C50.9995 106.738 50.545 106.88 50.0553 107.033ZM42.7038 127.405C45.0349 126.158 47.3706 124.912 50.1948 123.405C49.0999 122.699 48.2768 122.164 47.4428 121.623C47.2455 121.495 47.0476 121.367 46.8454 121.235C46.3334 121.845 45.8422 122.43 45.3654 122.998C44.2179 124.365 43.155 125.632 42.0919 126.89C42.2324 127.018 42.3752 127.135 42.5186 127.252C42.5803 127.303 42.642 127.353 42.7038 127.405ZM15.1441 92.3687C12.0368 91.4793 8.85182 90.9439 5.3746 92.101C5.48885 92.2912 5.56351 92.4278 5.61736 92.5269C5.7034 92.6843 5.73625 92.7451 5.79242 92.769C6.60932 93.1446 7.4262 93.5194 8.2432 93.895C16.2828 97.5909 24.3244 101.287 32.3886 104.939C32.7486 105.099 33.2247 105.062 33.7857 105.018C34.0751 104.995 34.3871 104.971 34.7174 104.971C30.7836 100.564 20.3999 93.8782 15.1441 92.3687ZM12.0938 116.379C17.925 122.39 23.425 128.061 29.2835 134.111C29.8161 133.535 30.3458 132.963 30.8725 132.394C35.0949 127.836 39.1213 123.489 42.7974 118.574C41.7779 117.975 40.7836 117.402 39.81 116.839C37.7116 115.628 35.7081 114.471 33.7493 113.248C31.69 111.954 29.7219 111.581 27.2219 112.366C24.8282 113.112 22.3683 113.688 19.9065 114.264C18.6278 114.564 17.3486 114.864 16.078 115.187C15.2957 115.389 14.528 115.628 13.6332 115.906C13.1622 116.052 12.656 116.209 12.0938 116.379ZM86.3691 139.021C88.7215 138 91.0012 137.012 93.0107 135.559C92.8253 135.571 92.6407 135.584 92.4568 135.596C88.2595 135.875 84.1365 136.15 80.0943 137.55C81.1766 138.607 82.0239 139.435 83.1038 140.493C84.1949 139.964 85.29 139.489 86.3691 139.021ZM73.8184 132.332C74.2704 132.675 75.1586 132.792 75.775 132.675C80.4228 131.884 85.0638 131.045 89.8861 130.173C91.3657 129.905 92.8613 129.635 94.38 129.362C92.9548 126.386 91.5416 123.44 90.1315 120.5C88.0165 116.09 85.9095 111.698 83.7816 107.248C82.589 108.076 81.4068 108.896 80.2326 109.711C73.8985 114.106 67.7978 118.34 61.5054 122.715C62.6826 123.637 63.8423 124.55 64.9909 125.454C67.9703 127.8 70.8753 130.086 73.8184 132.332ZM81.366 28.5454C80.8017 27.2156 80.2262 25.8592 79.6315 24.4647C72.6473 26.5283 66.3008 29.1949 59.77 31.9391C58.7024 32.3877 57.6298 32.8384 56.5488 33.2889C56.9679 34.247 57.3623 35.1589 57.7432 36.0392C58.4929 37.7723 59.1896 39.3828 59.9164 40.9811C60.6173 42.5153 61.317 44.0497 62.0166 45.5841C65.0908 52.326 68.1637 59.0653 71.3366 65.7636C71.4534 66.0105 71.5684 66.26 71.6838 66.5106C72.568 68.4298 73.4812 70.412 75.4805 71.7752C75.6453 71.6395 75.7947 71.5311 75.9253 71.4363C76.1712 71.2578 76.3507 71.1275 76.4417 70.9543C77.2066 69.5986 77.9736 68.2434 78.7406 66.888C82.1062 60.9416 85.4738 54.991 88.6887 48.9706C89.2595 47.9165 89.0444 46.2655 88.5992 45.0741C87.9478 43.3054 87.134 41.5916 86.3203 39.8783C85.8487 38.8849 85.3771 37.8917 84.9375 36.888C83.7457 34.1532 82.5818 31.411 81.366 28.5454Z" fill="#FF3234"/>
<path d="M4.00644 82.6835C4.00431 70.2752 4.01283 57.8667 4.00005 45.457C3.99578 40.6879 5.73833 36.5901 9.06354 33.2807C11.2793 31.0698 13.7978 29.1456 16.2789 27.2149C18.1302 25.7723 18.5544 23.6467 17.1272 21.8193C16.0391 20.4278 15.9688 18.153 17.0729 16.705C17.8829 15.6385 18.1632 14.5016 18.0204 13.1953C17.8765 11.8742 17.7742 10.5498 17.7273 9.22433C17.674 7.71561 18.6993 6.57769 20.1658 6.25698C27.8895 4.57352 35.7389 4.32952 43.5948 4.17077C48.8076 4.07168 54.0193 3.96514 59.2288 4.01095C64.093 4.0589 68.9679 4.13242 73.815 4.5128C78.5237 4.88678 83.2069 5.64007 87.8958 6.27936C89.4833 6.49672 90.52 8.05547 90.3018 9.62173C90.1307 10.8599 90.0012 12.1065 89.855 13.3499C89.7151 14.4974 90.0108 15.4904 90.7246 16.4313C92.1954 18.3555 92.0811 20.3863 90.5032 22.237C89.3682 23.5678 90.0156 25.8692 91.6894 27.1755C94.1114 29.0614 96.5638 30.9409 98.7476 33.0815C102.258 36.5133 104.006 40.7646 104 45.7436C103.977 70.6385 103.991 95.5292 103.981 120.425C103.977 129.764 97.4622 138.208 88.4993 140.378C85.931 140.999 83.2876 141.319 80.6626 141.671C77.7669 142.059 74.867 142.367 71.9595 142.613C69.31 142.847 66.6519 143.003 63.995 143.089C60.2338 143.208 56.4695 143.321 52.7094 143.275C47.2334 143.204 41.7404 143.246 36.2974 142.759C30.6126 142.251 24.9011 141.523 19.3483 140.261C12.2396 138.646 7.67166 133.825 5.15961 127.056C4.29207 124.725 3.99578 122.283 4.00005 119.794C4.01496 107.423 4.00644 95.0529 4.00644 82.6835Z" stroke="white" stroke-width="8" stroke-miterlimit="10"/>
</svg>
