<svg width="112" height="98" viewBox="0 0 112 98" fill="none" xmlns="http://www.w3.org/2000/svg">
<path d="M2.36 6.82H5.96C6.69333 6.82 7.34667 6.88667 7.92 7.02C8.50667 7.14 9 7.34667 9.4 7.64C9.81333 7.93333 10.1267 8.31333 10.34 8.78C10.5533 9.24667 10.66 9.82 10.66 10.5C10.66 11.7933 10.2467 12.76 9.42 13.4C8.59333 14.0267 7.44 14.34 5.96 14.34H3.28V20H2.36V6.82ZM5.72 13.56C7.08 13.56 8.08 13.32 8.72 12.84C9.37333 12.36 9.7 11.58 9.7 10.5C9.7 9.94 9.61333 9.48 9.44 9.12C9.28 8.74667 9.03333 8.44667 8.7 8.22C8.38 7.99333 7.96667 7.83333 7.46 7.74C6.96667 7.64667 6.38667 7.6 5.72 7.6H3.28V13.56H5.72ZM24.3322 14.7L23.4922 12.24C23.2255 11.4533 22.9722 10.7 22.7322 9.98C22.4922 9.26 22.2589 8.49333 22.0322 7.68H21.9522C21.7255 8.49333 21.4922 9.26 21.2522 9.98C21.0122 10.7 20.7589 11.4533 20.4922 12.24L19.6522 14.7H24.3322ZM24.5922 15.48H19.3722L17.8122 20H16.8922L21.5322 6.82H22.4522L27.0922 20H26.1122L24.5922 15.48ZM37.5244 7.62H32.9444V6.82H43.0244V7.62H38.4444V20H37.5244V7.62ZM5.54 32.62H0.96V31.82H11.04V32.62H6.46V45H5.54V32.62ZM18.5322 31.82H26.3322V32.62H19.4522V37.6H25.2522V38.4H19.4522V44.2H26.5322V45H18.5322V31.82ZM37.8444 38.18C39.0177 38.18 39.9177 37.9467 40.5444 37.48C41.171 37 41.4844 36.2733 41.4844 35.3C41.4844 34.3133 41.171 33.62 40.5444 33.22C39.9177 32.8067 39.0177 32.6 37.8444 32.6H35.2444V38.18H37.8444ZM41.6044 45L38.0444 38.94H35.2444V45H34.3244V31.82H38.0844C38.7377 31.82 39.331 31.8867 39.8644 32.02C40.3977 32.14 40.851 32.34 41.2244 32.62C41.611 32.9 41.9044 33.26 42.1044 33.7C42.3177 34.14 42.4244 34.6733 42.4244 35.3C42.4244 36.3533 42.1177 37.18 41.5044 37.78C40.9044 38.3667 40.0844 38.7333 39.0444 38.88L42.6844 45H41.6044ZM49.8166 31.82H50.7766L55.9166 41.14L57.3366 43.74H57.3766C57.3499 43.1 57.3232 42.4667 57.2966 41.84C57.2699 41.2 57.2566 40.56 57.2566 39.92V31.82H58.1366V45H57.1766L52.0366 35.68L50.6166 33.08H50.5766C50.6032 33.72 50.6299 34.3467 50.6566 34.96C50.6832 35.5733 50.6966 36.2 50.6966 36.84V45H49.8166V31.82Z" fill="white"/>
<path d="M37.8991 60.6129C39.0724 60.6129 39.9724 60.3795 40.5991 59.9129C41.2258 59.4329 41.5391 58.7062 41.5391 57.7329C41.5391 56.7462 41.2258 56.0529 40.5991 55.6529C39.9724 55.2395 39.0724 55.0329 37.8991 55.0329H35.2991V60.6129H37.8991ZM41.6591 67.4329L38.0991 61.3729H35.2991V67.4329H34.3791V54.2529H38.1391C38.7924 54.2529 39.3858 54.3195 39.9191 54.4529C40.4524 54.5729 40.9058 54.7729 41.2791 55.0529C41.6658 55.3329 41.9591 55.6929 42.1591 56.1329C42.3724 56.5729 42.4791 57.1062 42.4791 57.7329C42.4791 58.7862 42.1724 59.6129 41.5591 60.2129C40.9591 60.7995 40.1391 61.1662 39.0991 61.3129L42.7391 67.4329H41.6591ZM50.5713 54.2529H58.3713V55.0529H51.4913V60.0329H57.2913V60.8329H51.4913V66.6329H58.5713V67.4329H50.5713V54.2529ZM65.4635 60.8129C65.4635 59.7729 65.5968 58.8329 65.8635 57.9929C66.1435 57.1529 66.5301 56.4395 67.0235 55.8529C67.5168 55.2529 68.1101 54.7995 68.8035 54.4929C69.5101 54.1729 70.2835 54.0129 71.1235 54.0129C71.8835 54.0129 72.5501 54.1729 73.1235 54.4929C73.7101 54.8129 74.1835 55.1795 74.5435 55.5929L73.9835 56.1929C73.6368 55.7929 73.2235 55.4729 72.7435 55.2329C72.2635 54.9795 71.7235 54.8529 71.1235 54.8529C70.4035 54.8529 69.7501 54.9929 69.1635 55.2729C68.5901 55.5529 68.0968 55.9529 67.6835 56.4729C67.2835 56.9795 66.9701 57.5995 66.7435 58.3329C66.5301 59.0662 66.4235 59.8929 66.4235 60.8129C66.4235 61.7329 66.5301 62.5662 66.7435 63.3129C66.9701 64.0462 67.2835 64.6729 67.6835 65.1929C68.0835 65.7129 68.5701 66.1195 69.1435 66.4129C69.7168 66.6929 70.3568 66.8329 71.0635 66.8329C71.7435 66.8329 72.3435 66.6995 72.8635 66.4329C73.3835 66.1662 73.8835 65.7595 74.3635 65.2129L74.9035 65.7929C74.3968 66.3795 73.8301 66.8395 73.2035 67.1729C72.5901 67.5062 71.8568 67.6729 71.0035 67.6729C70.1901 67.6729 69.4435 67.5129 68.7635 67.1929C68.0835 66.8729 67.4968 66.4195 67.0035 65.8329C66.5235 65.2329 66.1435 64.5129 65.8635 63.6729C65.5968 62.8195 65.4635 61.8662 65.4635 60.8129ZM86.0157 67.6729C85.2957 67.6729 84.6357 67.5129 84.0357 67.1929C83.4357 66.8595 82.9157 66.3929 82.4757 65.7929C82.0357 65.1929 81.6957 64.4729 81.4557 63.6329C81.2157 62.7795 81.0957 61.8329 81.0957 60.7929C81.0957 59.7529 81.2157 58.8195 81.4557 57.9929C81.6957 57.1529 82.0357 56.4395 82.4757 55.8529C82.9157 55.2529 83.4357 54.7995 84.0357 54.4929C84.6357 54.1729 85.2957 54.0129 86.0157 54.0129C86.7357 54.0129 87.3957 54.1729 87.9957 54.4929C88.5957 54.7995 89.1157 55.2529 89.5557 55.8529C89.9957 56.4395 90.3357 57.1529 90.5757 57.9929C90.8157 58.8195 90.9357 59.7529 90.9357 60.7929C90.9357 61.8329 90.8157 62.7795 90.5757 63.6329C90.3357 64.4729 89.9957 65.1929 89.5557 65.7929C89.1157 66.3929 88.5957 66.8595 87.9957 67.1929C87.3957 67.5129 86.7357 67.6729 86.0157 67.6729ZM86.0157 66.8329C86.6023 66.8329 87.1357 66.6929 87.6157 66.4129C88.109 66.1195 88.529 65.7129 88.8757 65.1929C89.2223 64.6595 89.489 64.0262 89.6757 63.2929C89.8757 62.5462 89.9757 61.7129 89.9757 60.7929C89.9757 59.8862 89.8757 59.0662 89.6757 58.3329C89.489 57.5995 89.2223 56.9795 88.8757 56.4729C88.529 55.9529 88.109 55.5529 87.6157 55.2729C87.1357 54.9929 86.6023 54.8529 86.0157 54.8529C85.429 54.8529 84.889 54.9929 84.3957 55.2729C83.9157 55.5529 83.5023 55.9529 83.1557 56.4729C82.809 56.9795 82.5357 57.5995 82.3357 58.3329C82.149 59.0662 82.0557 59.8862 82.0557 60.7929C82.0557 61.7129 82.149 62.5462 82.3357 63.2929C82.5357 64.0262 82.809 64.6595 83.1557 65.1929C83.5023 65.7129 83.9157 66.1195 84.3957 66.4129C84.889 66.6929 85.429 66.8329 86.0157 66.8329ZM97.1879 60.8129C97.1879 59.7729 97.3212 58.8329 97.5879 57.9929C97.8679 57.1529 98.2545 56.4395 98.7479 55.8529C99.2545 55.2529 99.8545 54.7995 100.548 54.4929C101.241 54.1729 102.015 54.0129 102.868 54.0129C103.308 54.0129 103.701 54.0595 104.048 54.1529C104.408 54.2462 104.728 54.3729 105.008 54.5329C105.301 54.6795 105.555 54.8462 105.768 55.0329C105.995 55.2195 106.195 55.4062 106.368 55.5929L105.828 56.1929C105.495 55.8195 105.095 55.5062 104.628 55.2529C104.161 54.9862 103.575 54.8529 102.868 54.8529C102.148 54.8529 101.495 54.9929 100.908 55.2729C100.321 55.5529 99.8212 55.9529 99.4079 56.4729C99.0079 56.9795 98.6945 57.5995 98.4679 58.3329C98.2545 59.0662 98.1479 59.8929 98.1479 60.8129C98.1479 61.7329 98.2479 62.5662 98.4479 63.3129C98.6612 64.0462 98.9679 64.6729 99.3679 65.1929C99.7679 65.7129 100.248 66.1195 100.808 66.4129C101.381 66.6929 102.028 66.8329 102.748 66.8329C103.335 66.8329 103.881 66.7462 104.388 66.5729C104.895 66.3995 105.301 66.1529 105.608 65.8329V61.7329H102.568V60.9529H106.508V66.1729C106.108 66.6129 105.581 66.9729 104.928 67.2529C104.288 67.5329 103.541 67.6729 102.688 67.6729C101.861 67.6729 101.108 67.5129 100.428 67.1929C99.7612 66.8729 99.1879 66.4195 98.7079 65.8329C98.2279 65.2329 97.8545 64.5129 97.5879 63.6729C97.3212 62.8195 97.1879 61.8662 97.1879 60.8129ZM17.8869 79.2529H18.8469L23.9869 88.5729L25.4069 91.1729H25.4469C25.4202 90.5329 25.3936 89.8995 25.3669 89.2729C25.3402 88.6329 25.3269 87.9929 25.3269 87.3529V79.2529H26.2069V92.4329H25.2469L20.1069 83.1129L18.6869 80.5129H18.6469C18.6736 81.1529 18.7002 81.7795 18.7269 82.3929C18.7536 83.0062 18.7669 83.6329 18.7669 84.2729V92.4329H17.8869V79.2529ZM34.1791 91.6329H37.5791V80.0529H34.1791V79.2529H41.8991V80.0529H38.4991V91.6329H41.8991V92.4329H34.1791V91.6329ZM53.5713 80.0529H48.9913V79.2529H59.0713V80.0529H54.4913V92.4329H53.5713V80.0529ZM66.1635 91.6329H69.5635V80.0529H66.1635V79.2529H73.8835V80.0529H70.4835V91.6329H73.8835V92.4329H66.1635V91.6329ZM86.0157 92.6729C85.2957 92.6729 84.6357 92.5129 84.0357 92.1929C83.4357 91.8595 82.9157 91.3929 82.4757 90.7929C82.0357 90.1929 81.6957 89.4729 81.4557 88.6329C81.2157 87.7795 81.0957 86.8329 81.0957 85.7929C81.0957 84.7529 81.2157 83.8195 81.4557 82.9929C81.6957 82.1529 82.0357 81.4395 82.4757 80.8529C82.9157 80.2529 83.4357 79.7995 84.0357 79.4929C84.6357 79.1729 85.2957 79.0129 86.0157 79.0129C86.7357 79.0129 87.3957 79.1729 87.9957 79.4929C88.5957 79.7995 89.1157 80.2529 89.5557 80.8529C89.9957 81.4395 90.3357 82.1529 90.5757 82.9929C90.8157 83.8195 90.9357 84.7529 90.9357 85.7929C90.9357 86.8329 90.8157 87.7795 90.5757 88.6329C90.3357 89.4729 89.9957 90.1929 89.5557 90.7929C89.1157 91.3929 88.5957 91.8595 87.9957 92.1929C87.3957 92.5129 86.7357 92.6729 86.0157 92.6729ZM86.0157 91.8329C86.6023 91.8329 87.1357 91.6929 87.6157 91.4129C88.109 91.1195 88.529 90.7129 88.8757 90.1929C89.2223 89.6595 89.489 89.0262 89.6757 88.2929C89.8757 87.5462 89.9757 86.7129 89.9757 85.7929C89.9757 84.8862 89.8757 84.0662 89.6757 83.3329C89.489 82.5995 89.2223 81.9795 88.8757 81.4729C88.529 80.9529 88.109 80.5529 87.6157 80.2729C87.1357 79.9929 86.6023 79.8529 86.0157 79.8529C85.429 79.8529 84.889 79.9929 84.3957 80.2729C83.9157 80.5529 83.5023 80.9529 83.1557 81.4729C82.809 81.9795 82.5357 82.5995 82.3357 83.3329C82.149 84.0662 82.0557 84.8862 82.0557 85.7929C82.0557 86.7129 82.149 87.5462 82.3357 88.2929C82.5357 89.0262 82.809 89.6595 83.1557 90.1929C83.5023 90.7129 83.9157 91.1195 84.3957 91.4129C84.889 91.6929 85.429 91.8329 86.0157 91.8329ZM97.8479 79.2529H98.8079L103.948 88.5729L105.368 91.1729H105.408C105.381 90.5329 105.355 89.8995 105.328 89.2729C105.301 88.6329 105.288 87.9929 105.288 87.3529V79.2529H106.168V92.4329H105.208L100.068 83.1129L98.6479 80.5129H98.6079C98.6345 81.1529 98.6612 81.7795 98.6879 82.3929C98.7145 83.0062 98.7279 83.6329 98.7279 84.2729V92.4329H97.8479V79.2529Z" fill="white"/>
</svg>
